<svg width="80" height="80" viewBox="0 0 600 600" fill="none"
    xmlns="http://www.w3.org/2000/svg">
    <g opacity="1">
        <path fill-rule="evenodd" clip-rule="evenodd" d="M191.089 337.479C124.642 277.435 125.357 169.555 186.223 104.725C254.581 31.9084 375.491 18.8266 470.887 66.3732C477.298 69.5777 482.352 62.5888 476.117 57.5835C390.891 -22.5377 237.752 -18.7823 146.073 67.1531C55.7721 151.791 54.4393 302.537 144.683 384.228C159.525 397.691 183.6 403.497 196.98 387.252C210.981 371.282 204.801 349.862 191.089 337.479Z" fill="white"></path>
        <path fill-rule="evenodd" clip-rule="evenodd" d="M262.518 191.084C322.562 124.64 430.443 125.353 495.274 186.218C568.09 254.576 581.172 375.486 533.623 470.882C530.418 477.293 537.409 482.346 542.415 476.112C622.534 390.886 618.779 237.747 532.845 146.07C448.207 55.7678 297.461 54.4349 215.769 144.679C202.306 159.52 196.499 183.596 212.743 196.975C228.713 210.976 250.135 204.796 262.518 191.084Z" fill="white"></path>
        <path fill-rule="evenodd" clip-rule="evenodd" d="M408.902 262.521C475.349 322.565 474.636 430.444 413.77 495.275C345.413 568.091 224.502 581.173 129.106 533.626C122.695 530.422 117.642 537.411 123.876 542.416C209.102 622.535 362.24 618.78 453.919 532.847C544.219 448.209 545.554 297.463 455.308 215.771C440.469 202.309 416.391 196.503 403.014 212.746C389.011 228.718 395.193 250.137 408.902 262.521Z" fill="white"></path>
        <path fill-rule="evenodd" clip-rule="evenodd" d="M337.484 408.898C277.439 475.344 169.559 474.631 104.728 413.765C31.912 345.408 18.8301 224.498 66.3769 129.102C69.5814 122.691 62.5923 117.638 57.5871 123.872C-22.5344 209.098 -18.7789 362.235 67.1567 453.914C151.795 544.214 302.541 545.549 384.233 455.305C397.695 440.464 403.501 416.386 387.256 403.009C371.286 389.008 349.867 395.188 337.484 408.898Z" fill="white"></path>
    </g>
</svg>