<svg width="91" height="23" viewBox="0 0 91 23" fill="none"
    xmlns="http://www.w3.org/2000/svg" class="mx-6 h-20 " style="color:#FCFCFC">
    <path d="M87.9785 5.67207C88.3771 5.67207 88.6824 5.97569 88.6824 6.37429C88.6824 6.7729 88.3771 7.07821 87.9785 7.07821H87.1118L82.8458 17.2503C81.6042 20.2034 80.6187 22.5 77.3366 22.5C76.7056 22.5 76.095 22.4067 75.7201 22.2897C74.6651 21.9369 75.0875 20.5307 75.978 20.6953C76.4003 20.7665 76.8685 20.8835 77.2671 20.8835C78.2763 20.8835 78.9785 20.5307 79.4942 19.9455C80.0098 19.3603 80.4084 18.5394 80.6662 17.9305L80.9003 17.3673L76.7989 7.07821H72.8146V15.8679H74.5956C74.9942 15.8679 75.2978 16.1715 75.2978 16.5701C75.2978 16.9687 74.9942 17.274 74.5956 17.274H69.3696C68.971 17.274 68.6657 16.9687 68.6657 16.5701C68.6657 16.1715 68.971 15.8679 69.3696 15.8679H70.9165V7.07821H69.3696C68.971 7.07821 68.6657 6.7729 68.6657 6.37429C68.6657 5.97569 68.971 5.67207 69.3696 5.67207H70.9165V4.03185C70.9165 1.47738 72.5805 -1.90735e-06 74.9942 -1.90735e-06C76.0017 -1.90735e-06 76.916 0.210325 77.5011 0.42235C78.5799 0.797209 78.1338 2.38993 76.9397 1.96928C76.4478 1.80475 75.7897 1.61647 75.1112 1.61647C73.4472 1.61647 72.8146 2.71899 72.8146 4.19468V5.67207H80.0098C80.4084 5.67207 80.712 5.97569 80.712 6.37429C80.712 6.7729 80.4084 7.07821 80.0098 7.07821H78.7682L81.9553 15.3047L85.2358 7.07821H83.9009C83.5023 7.07821 83.197 6.7729 83.197 6.37429C83.197 5.97569 83.5023 5.67207 83.9009 5.67207H87.9785ZM64.1657 0.632679C65.0562 0.632679 65.7601 1.3366 65.7601 2.2271C65.7601 3.09385 65.0562 3.79608 64.1657 3.79608C63.2989 3.79608 62.595 3.09385 62.595 2.2271C62.595 1.3366 63.2989 0.632679 64.1657 0.632679ZM65.2428 15.8679H66.7914C67.19 15.8679 67.4936 16.1715 67.4936 16.5701C67.4936 16.9687 67.19 17.274 66.7914 17.274H61.7978C61.3992 17.274 61.0956 16.9687 61.0956 16.5701C61.0956 16.1715 61.3992 15.8679 61.7978 15.8679H63.3447V7.07821H61.7978C61.3992 7.07821 61.0956 6.7729 61.0956 6.37429C61.0956 5.97569 61.3992 5.67207 61.7978 5.67207H64.5405C64.9391 5.67207 65.2428 5.97569 65.2428 6.37429V15.8679ZM57.6726 15.8679H59.2196C59.6182 15.8679 59.9235 16.1715 59.9235 16.5701C59.9235 16.9687 59.6182 17.274 59.2196 17.274H54.2277C53.8291 17.274 53.5255 16.9687 53.5255 16.5701C53.5255 16.1715 53.8291 15.8679 54.2277 15.8679H55.7746V1.80475H54.2277C53.8291 1.80475 53.5255 1.49943 53.5255 1.10083C53.5255 0.702223 53.8291 0.398603 54.2277 0.398603H56.9704C57.369 0.398603 57.6726 0.702223 57.6726 1.10083V15.8679ZM50.2908 11.4849C50.2908 8.43686 48.6726 7.00867 46.7051 7.00867C44.7358 7.00867 43.1176 8.43686 43.1176 11.4849C43.1176 14.5313 44.7358 15.9612 46.7051 15.9612C48.6964 15.9612 50.2908 14.5313 50.2908 11.4849ZM43.0956 7.54636C43.8911 6.25725 45.2752 5.43799 47.0562 5.43799C50.1025 5.43799 52.1889 7.73464 52.1889 11.4137C52.1889 14.9994 50.2196 17.5081 46.9849 17.5081C45.416 17.5081 44.0098 16.9212 43.1414 15.5151V21.0243H44.8291C45.2277 21.0243 45.533 21.3279 45.533 21.7265C45.533 22.1251 45.2277 22.4305 44.8291 22.4305H39.9305C39.5319 22.4305 39.2282 22.1251 39.2282 21.7265C39.2282 21.3279 39.5319 21.0243 39.9305 21.0243H41.2433V7.07821H40.1187C39.7201 7.07821 39.4148 6.7729 39.4148 6.37429C39.4148 5.97569 39.7201 5.67207 40.1187 5.67207H42.3916C42.7902 5.67207 43.0956 5.97569 43.0956 6.37429V7.54636ZM9.62627 2.2729H8.9461L6.97682 9.25782H11.5718L9.62627 2.2729ZM18.2514 7.07821C17.8528 7.07821 17.5475 6.7729 17.5475 6.37429C17.5475 5.97569 17.8528 5.67207 18.2514 5.67207H20.5243C20.9229 5.67207 21.2282 5.97569 21.2282 6.37429V7.54636C22.7972 6.09442 24.1101 5.43799 25.6112 5.43799C27.533 5.43799 28.4235 6.49302 28.7051 7.63965C30.252 6.09442 31.7752 5.43799 33.3441 5.43799C36.1581 5.43799 36.5788 7.52262 36.5788 8.78967V15.8679H37.7983C38.197 15.8679 38.5006 16.1715 38.5006 16.5701C38.5006 16.9687 38.197 17.274 37.7983 17.274H33.3679C32.9693 17.274 32.6657 16.9687 32.6657 16.5701C32.6657 16.1715 32.9693 15.8679 33.3679 15.8679H34.6807V8.93046C34.6807 7.80418 34.0956 7.07821 32.8522 7.07821C31.5869 7.07821 30.252 7.82793 28.9154 9.07124V15.8679H30.1332C30.5319 15.8679 30.8372 16.1715 30.8372 16.5701C30.8372 16.9687 30.5319 17.274 30.1332 17.274H25.7045C25.3059 17.274 25.0006 16.9687 25.0006 16.5701C25.0006 16.1715 25.3059 15.8679 25.7045 15.8679H27.0173V8.93046C27.0173 7.80418 26.4305 7.07821 25.1888 7.07821C23.9235 7.07821 22.5869 7.82793 21.274 9.07124V15.8679H22.5869C22.9855 15.8679 23.2908 16.1715 23.2908 16.5701C23.2908 16.9687 22.9855 17.274 22.5869 17.274H11.9229C11.5243 17.274 11.219 16.9687 11.219 16.5701C11.219 16.1715 11.5243 15.8679 11.9229 15.8679H13.5173L12.04 10.781H6.48493L5.05503 15.8679H6.64945C7.04806 15.8679 7.35337 16.1715 7.35337 16.5701C7.35337 16.9687 7.04806 17.274 6.64945 17.274H1.58632C1.18941 17.274 0.884094 16.9687 0.884094 16.5701C0.884094 16.1715 1.18941 15.8679 1.58632 15.8679H3.08745L7.23464 2.2729H5.24331C4.8447 2.2729 4.53939 1.96928 4.53939 1.57067C4.53939 1.17207 4.8447 0.866753 5.24331 0.866753H10.3285C10.7983 0.866753 11.1257 1.14832 11.2427 1.57067L15.6257 15.8679H19.376V7.07821H18.2514Z" fill="currentColor"></path>
    <path d="M88.6386 13.8986C89.6461 13.8986 90.4433 14.6958 90.4433 15.7033C90.4433 16.7108 89.6461 17.5081 88.6386 17.5081C87.631 17.5081 86.8338 16.7108 86.8338 15.7033C86.8338 14.6958 87.631 13.8986 88.6386 13.8986Z" fill="currentColor"></path>
</svg>