<svg width="98" height="19" viewBox="0 0 98 19" fill="none"
    xmlns="http://www.w3.org/2000/svg" class="mx-6 h-20 " style="color:#FCFCFC">
    <g clip-path="url(#clip0_2423_12963)">
        <path d="M0.120117 1.71838L3.10685 2.58122V14.5282L0.120117 15.391V1.71838Z" fill="currentColor"></path>
        <path d="M4.83203 7.82385L7.7524 8.55394V14.992L4.83203 15.5894V7.82385Z" fill="currentColor"></path>
        <path d="M9.81055 6.56347L12.5318 5.83337V13.7316L9.81055 12.9352V6.56347Z" fill="currentColor"></path>
        <path d="M14.3242 1.05432L17.311 1.91716V15.3243L14.3242 16.0544V1.05432Z" fill="currentColor"></path>
        <path d="M91.0874 10.0917H96.3573C96.2688 9.42485 95.9838 8.88458 95.5023 8.47087C95.0208 8.05715 94.436 7.85029 93.7481 7.85029C93.0504 7.85029 92.4509 8.06201 91.9497 8.48547C91.4534 8.90405 91.166 9.43945 91.0874 10.0917ZM91.0874 11.2014C91.1365 11.9218 91.4215 12.5058 91.9423 12.9536C92.4681 13.4014 93.129 13.6253 93.925 13.6253C94.436 13.6253 94.9127 13.5182 95.3549 13.3041C95.7971 13.0899 96.2025 12.7735 96.571 12.355L97.5808 13.1581C97.0747 13.7421 96.5194 14.1729 95.915 14.4503C95.3156 14.7278 94.6375 14.8665 93.8808 14.8665C93.2568 14.8665 92.6745 14.7545 92.134 14.5306C91.5935 14.3067 91.1291 13.9879 90.741 13.5742C90.4019 13.2092 90.1415 12.7881 89.9597 12.3111C89.7779 11.8293 89.687 11.3255 89.687 10.7999C89.687 9.55384 90.0629 8.54631 90.8147 7.77728C91.5665 7.00825 92.5492 6.62373 93.7629 6.62373C95.0011 6.62373 96.001 7.03502 96.7626 7.85759C97.5292 8.67529 97.9125 9.75583 97.9125 11.0992V11.2014H91.0874ZM87.997 8.64609C87.7528 8.37352 87.4738 8.17396 87.1599 8.04741C86.8509 7.916 86.4971 7.85029 86.0984 7.85029C85.326 7.85029 84.6907 8.12286 84.1924 8.66799C83.699 9.20826 83.4524 9.90185 83.4524 10.7488C83.4524 11.5957 83.6965 12.2868 84.1849 12.8222C84.6782 13.3576 85.3161 13.6253 86.0984 13.6253C86.522 13.6253 86.8957 13.5523 87.2197 13.4063C87.5485 13.2603 87.8276 13.0437 88.0568 12.7565L88.9762 13.7859C88.5576 14.1607 88.1166 14.4357 87.6532 14.6109C87.1947 14.7813 86.6765 14.8665 86.0984 14.8665C85.5054 14.8665 84.9573 14.7691 84.454 14.5744C83.9507 14.3797 83.5147 14.0974 83.1459 13.7275C82.7522 13.3381 82.4532 12.8928 82.2489 12.3915C82.0496 11.8853 81.9499 11.3377 81.9499 10.7488C81.9499 10.1598 82.0496 9.61224 82.2489 9.10605C82.4532 8.59985 82.7522 8.15206 83.1459 7.76268C83.5196 7.3879 83.9557 7.10559 84.454 6.91577C84.9523 6.72108 85.5004 6.62373 86.0984 6.62373C86.6665 6.62373 87.1798 6.70648 87.6382 6.87196C88.1017 7.03745 88.5228 7.28812 88.9015 7.62396L87.997 8.64609ZM74.3884 14.6693V6.82086H75.7875V7.71887C76.1398 7.36356 76.5094 7.10073 76.8964 6.93037C77.2883 6.75515 77.7075 6.66754 78.1541 6.66754C79.0719 6.66754 79.7963 6.97418 80.3271 7.58746C80.858 8.20073 81.1234 9.0452 81.1234 10.1209V14.6693H79.7094V10.2596C79.7094 9.43702 79.5631 8.83591 79.2703 8.45626C78.9826 8.07175 78.5286 7.87949 77.9085 7.87949C77.204 7.87949 76.6731 8.08392 76.3159 8.49277C75.9636 8.89675 75.7875 9.50516 75.7875 10.318V14.6693H74.3884ZM69.0058 13.5742C69.7946 13.5742 70.4431 13.3089 70.9513 12.7784C71.4594 12.2479 71.7135 11.5665 71.7135 10.7342C71.7135 9.90671 71.4594 9.22773 70.9513 8.6972C70.4431 8.16179 69.7946 7.89409 69.0058 7.89409C68.217 7.89409 67.5685 8.15936 67.0603 8.68989C66.5522 9.22043 66.2981 9.90185 66.2981 10.7342C66.2981 11.5713 66.5522 12.2552 67.0603 12.7857C67.5685 13.3114 68.217 13.5742 69.0058 13.5742ZM73.0201 14.6693H71.6409V13.3844C71.3118 13.8468 70.9101 14.1948 70.4359 14.4284C69.9664 14.6572 69.4268 14.7716 68.8171 14.7716C68.2751 14.7716 67.7572 14.6693 67.2636 14.4649C66.7748 14.2556 66.3393 13.9539 65.957 13.5596C65.594 13.18 65.3206 12.7516 65.1367 12.2746C64.9528 11.7977 64.8608 11.2793 64.8608 10.7195C64.8608 9.5076 65.2214 8.52927 65.9424 7.78458C66.6684 7.03989 67.6266 6.66754 68.8171 6.66754C69.4172 6.66754 69.9664 6.79165 70.4649 7.03989C70.9634 7.28325 71.3892 7.63856 71.7425 8.10582V6.82086H73.0201V14.6693ZM56.6809 4.59408V13.326H57.7664C59.3488 13.326 60.5404 12.9585 61.3413 12.2235C62.147 11.4886 62.5498 10.4007 62.5498 8.96003C62.5498 7.51445 62.147 6.42661 61.3413 5.69652C60.5404 4.96156 59.3488 4.59408 57.7664 4.59408H56.6809ZM57.542 3.24341C59.6648 3.24341 61.2786 3.73014 62.3834 4.70359C63.493 5.67218 64.0478 7.09099 64.0478 8.96003C64.0478 10.8242 63.493 12.243 62.3834 13.2165C61.2786 14.1851 59.6648 14.6693 57.542 14.6693H55.1973V3.24341H57.542ZM46.3828 10.0917H51.5677C51.4807 9.42485 51.2003 8.88458 50.7265 8.47087C50.2528 8.05715 49.6775 7.85029 49.0007 7.85029C48.3142 7.85029 47.7244 8.06201 47.2313 8.48547C46.743 8.90405 46.4602 9.43945 46.3828 10.0917ZM46.3828 11.2014C46.4312 11.9218 46.7116 12.5058 47.224 12.9536C47.7413 13.4014 48.3915 13.6253 49.1747 13.6253C49.6775 13.6253 50.1464 13.5182 50.5815 13.3041C51.0166 13.0899 51.4154 12.7735 51.778 12.355L52.7715 13.1581C52.2735 13.7421 51.7272 14.1729 51.1326 14.4503C50.5428 14.7278 49.8757 14.8665 49.1312 14.8665C48.5172 14.8665 47.9443 14.7545 47.4126 14.5306C46.8808 14.3067 46.4239 13.9879 46.042 13.5742C45.7085 13.2092 45.4522 12.7881 45.2734 12.3111C45.0945 11.8293 45.0051 11.3255 45.0051 10.7999C45.0051 9.55384 45.3749 8.54631 46.1145 7.77728C46.8542 7.00825 47.8211 6.62373 49.0152 6.62373C50.2334 6.62373 51.2172 7.03502 51.9665 7.85759C52.7207 8.67529 53.0978 9.75583 53.0978 11.0992V11.2014H46.3828ZM41.1448 4.90805V6.82088H39.9714H38.4027L36.2936 11.7855C36.2585 11.8683 36.191 12.0531 36.0909 12.3403C35.9958 12.6226 35.8783 12.9707 35.7382 13.3844C35.6131 12.9463 35.5055 12.5885 35.4154 12.3111C35.3303 12.0337 35.2703 11.8585 35.2352 11.7855L33.1561 6.82088H31.5575L34.9275 14.6693L33.5089 17.9256H34.9575L39.4665 7.93915L41.1448 7.98897V13.0412C41.1448 13.6983 41.3141 14.168 41.6525 14.4503C41.9909 14.7277 42.5596 14.8664 43.3585 14.8664H44.249V13.545H43.4168C43.1782 13.545 43.0035 13.4915 42.8925 13.3844C42.7871 13.2773 42.7344 13.1069 42.7344 12.8733V7.98897H44.249V6.82088H42.7344V4.90805H41.1448ZM22.9561 14.6693V3.24341H25.1697C26.0241 3.24341 26.6982 3.28235 27.192 3.36022C27.6913 3.43323 28.1046 3.55491 28.432 3.72527C28.9923 4.01731 29.4167 4.38722 29.7052 4.83501C29.9993 5.27793 30.1463 5.77926 30.1463 6.339C30.1463 6.80139 30.0104 7.22484 29.7385 7.60936C29.4722 7.99387 29.0922 8.30781 28.5984 8.55118C29.4084 8.78481 30.0215 9.14985 30.4376 9.64631C30.8592 10.1379 31.0701 10.7463 31.0701 11.4715C31.0701 12.372 30.6651 13.1313 29.855 13.7494C29.0506 14.3627 28.0464 14.6693 26.8425 14.6693H22.9561ZM24.6454 8.16423H26.0435C26.8203 8.16423 27.4195 8.00604 27.8411 7.68967C28.2683 7.37329 28.4819 6.92794 28.4819 6.3536C28.4819 5.75006 28.2683 5.29497 27.8411 4.98833C27.4139 4.68169 26.7759 4.52837 25.927 4.52837H24.6454V8.16423ZM24.6454 13.326H26.3681C27.339 13.326 28.0741 13.1629 28.5734 12.8368C29.0783 12.5107 29.3308 12.0288 29.3308 11.3912C29.3308 10.7634 29.0866 10.2888 28.5984 9.96756C28.1102 9.64145 27.3889 9.47839 26.4347 9.47839H24.6454V13.326Z" fill="currentColor"></path>
    </g>
    <defs>
        <clipPath id="clip0_2423_12963">
            <rect width="97.5373" height="18.9802" fill="currentColor" transform="translate(0.120117)"></rect>
        </clipPath>
    </defs>
</svg>