<svg width="98" height="19" viewBox="0 0 98 19" fill="none"
    xmlns="http://www.w3.org/2000/svg" class="mx-6 h-20 " style="color:#FCFCFC">
    <g clip-path="url(#clip0_1460_982)">
        <path d="M93.1901 18.9885C95.5423 18.9885 97.4442 17.0866 97.4442 14.7345V4.26236C97.4675 1.9102 95.5423 0.00830078 93.1901 0.00830078H4.68167C2.32952 0.00830078 0.427612 1.9102 0.427612 4.28176V14.7345C0.427612 17.0866 2.32952 18.9885 4.68167 18.9885H93.1901Z" fill="currentColor"></path>
        <path d="M22.187 17.4941C20.6499 17.4941 19.4079 16.2559 19.4079 14.715V4.26226C19.4079 2.72521 20.646 1.48315 22.187 1.48315H93.1902C94.7272 1.48315 95.9693 2.72133 95.9693 4.26226V14.715C95.9693 16.252 94.7311 17.4941 93.1902 17.4941H22.187Z" fill="#09090B"></path>
        <path d="M4.70483 17.5134C3.16778 17.5134 1.92572 16.2752 1.92572 14.7343V4.28546C1.92572 2.74841 3.1639 1.50635 4.70483 1.50635H15.1343C16.6713 1.50635 17.9134 2.74453 17.9134 4.28546V14.7382C17.9134 16.2752 16.6752 17.5173 15.1343 17.5173H4.70483V17.5134Z" fill="#09090B"></path>
        <path d="M13.0617 3.28027C13.1703 3.30356 13.64 3.45106 13.64 3.45106C13.64 3.45106 14.0902 4.11478 14.2183 4.26228C14.327 4.41365 14.2843 4.49905 14.2843 4.49905L14.0708 5.31027C13.9854 5.24428 13.3877 5.28698 13.2363 5.31027C13.0849 5.33355 13.3644 5.13948 13.4304 5.0735C13.4964 5.00751 13.7526 4.81732 13.7293 4.73193C13.706 4.62325 13.3023 3.87802 13.3023 3.87802C13.3023 3.87802 12.6192 3.87802 12.297 3.92071C11.9749 3.96341 11.2917 4.64654 11.2917 4.64654L11.0355 5.62854C11.0355 5.62854 11.1442 5.79933 11.2723 5.92742C11.4237 6.0361 11.8274 6.01281 11.9787 5.9934C12.1301 5.97011 12.0641 6.16418 11.936 6.27286C11.808 6.38154 11.3383 6.38154 11.3383 6.38154L11.5324 6.44753C11.7459 6.6416 12.1301 7.64301 12.3669 7.87978C12.6036 8.11655 12.3669 9.26933 12.0253 9.6109C11.6837 9.95247 11.5324 10.6589 11.3422 10.8491C11.152 11.0393 10.9346 10.9772 11.1481 11.1906C11.3616 11.4041 11.2568 11.6603 11.2995 11.8311C11.3228 11.9592 11.3655 12.1726 11.4509 12.258C11.5595 12.3667 13.0966 13.4341 13.6943 13.4768C13.803 13.4768 13.803 14.0319 13.182 14.6956C13.182 14.6956 13.0733 15.0798 12.0059 15.1225C10.8531 15.1652 9.71974 14.9712 9.46356 14.9712C9.20739 14.9712 8.43886 14.5442 8.43886 14.5442C8.28749 14.5442 6.04401 11.2101 6.04401 10.9733C6.04401 10.7365 5.87323 10.1194 5.87323 9.8826C5.87323 9.64583 6.15269 7.53045 6.11 7.27427C6.0673 7.0802 6.17598 7.0181 6.40887 6.80462C6.64564 6.56785 7.04931 6.18359 7.22009 6.01281C7.28607 5.94682 7.84112 5.94682 8.52425 5.81874L8.63293 5.77604L8.50485 5.71005C8.50485 5.71005 8.29137 5.43059 7.9498 5.45388C7.60823 5.47717 7.48015 5.49658 7.67034 5.41118C7.84112 5.32579 8.18269 5.08902 8.18269 5.08902L8.95121 5.43059H9.35876L10.0846 4.83285L11.7303 3.50928L13.0617 3.28027ZM7.97309 7.49163C7.77902 7.53433 7.46074 7.46835 7.30936 7.74781L7.05319 8.96658C7.05319 8.96658 7.07648 10.1854 7.11917 10.4182C7.14246 10.655 7.46074 11.4429 7.63152 11.6137C7.7829 11.7651 7.93039 12.2774 8.20986 12.553C8.27584 12.619 8.44662 12.6617 8.48932 12.7471C8.598 12.8985 8.7028 12.7898 8.48932 12.4909C7.7402 11.3808 7.56942 10.4182 7.55001 10.2669C7.46462 9.90201 7.52672 9.07138 7.55001 8.72981C7.5733 8.55903 7.6781 8.15148 7.80619 8.06609C7.87217 8.02339 8.38452 7.95741 8.46991 7.938C8.6407 7.8953 8.85418 7.8953 9.00555 7.87201C9.47521 7.76333 10.1816 8.02339 10.2437 8.0428C10.9502 8.36496 10.6707 8.49305 10.694 8.51245C10.7173 8.55515 9.71197 10.5424 9.71197 10.6511C9.71197 10.7598 9.75467 11.7418 9.84006 12.0174C9.86335 12.1028 10.1816 12.8519 10.2476 12.9994C10.5038 13.5971 9.71198 12.8907 9.66928 12.8713C9.62658 12.848 8.74938 11.0742 8.60188 10.6899C8.4932 10.4338 8.5359 10.0495 8.55919 9.98352C8.58248 9.87484 8.51649 9.02092 8.66787 8.89283C8.77655 8.80744 9.09483 8.76475 9.33159 8.86955C9.54507 8.95494 9.65375 9.19171 9.63047 9.25381C9.60718 9.2965 9.2889 10.3872 9.22291 10.3018C9.19963 10.2785 9.19962 9.93694 9.15693 9.89425C9.09094 9.82826 9.00555 9.78557 8.98615 9.82826C8.96674 9.87096 8.90075 10.2358 8.92016 10.3639C9.07154 10.9616 9.26173 10.7715 9.32771 10.6628C9.43639 10.492 9.90605 9.16842 9.88276 9.08302C9.85947 8.88895 9.71197 8.54739 9.4131 8.44259C9.21903 8.3766 8.60188 8.4193 8.36512 8.52798C8.02355 8.69876 8.04296 10.2397 8.10894 10.4532C8.17492 10.6667 9.07154 12.4638 9.11423 12.5918C9.22291 12.8713 9.86335 13.4885 9.94874 13.5544C9.99144 13.5777 10.8686 13.9193 10.9734 13.7485C11.0161 13.6631 10.9967 13.469 10.7794 13.3216C10.5659 13.1935 10.0729 11.7185 10.0729 11.6098C10.0729 11.5012 9.94486 10.6899 10.0303 10.5192C10.201 10.197 11.3965 8.40377 11.2684 8.2524C11.0976 8.05832 10.562 7.16171 10.3058 7.50328C10.0691 7.80215 9.17245 7.50328 8.89687 7.2898C8.89299 7.32085 8.27584 7.44894 7.97309 7.49163ZM11.4392 14.3928C11.7808 14.3928 12.7434 13.8805 12.4018 13.6437C12.165 13.4923 11.9089 13.3022 11.4198 12.9179C11.2063 12.7471 11.0976 12.7898 11.0355 12.7898C10.8415 12.7898 11.1636 12.4676 11.0588 12.1921C10.9307 11.9126 10.8648 11.4662 10.7794 11.3575C10.6707 11.2489 10.7134 10.7171 10.9307 10.5036C11.1675 10.2669 11.4858 9.60702 11.6799 9.35084C11.8933 9.05197 12.0447 8.36884 11.9593 8.28345C11.8739 8.19806 11.4664 7.36355 11.2956 7.19276C11.1869 7.08408 10.9967 6.8085 10.8259 6.57173L10.7833 6.50575L10.5892 6.61443C10.3951 6.72311 10.1622 6.93659 10.1622 6.93659C10.1622 6.93659 9.99144 6.97928 9.62658 6.9133C9.43251 6.8706 9.34712 6.74252 9.34712 6.57173C9.34712 6.40095 9.23844 6.44365 9.23844 6.44365C9.23844 6.44365 7.52672 6.52904 7.37923 6.61443C7.25114 6.69982 6.6534 7.51104 6.6534 7.51104C6.6534 7.51104 6.33124 10.6317 6.58741 10.8879C6.88629 11.1868 8.25643 13.601 8.53202 13.8805C8.83089 14.3074 11.0938 14.3928 11.4392 14.3928ZM35.3955 10.589C35.2674 10.589 35.1587 10.6977 35.1587 10.8258V13.3681C35.1587 13.4962 35.05 13.6049 34.9219 13.6049H33.9166C33.7885 13.6049 33.6799 13.4962 33.6799 13.3681V5.43835C33.6799 5.31027 33.7885 5.20159 33.9166 5.20159H34.9219C35.05 5.20159 35.1587 5.31027 35.1587 5.43835V8.98599C35.1587 9.11408 35.2674 9.22276 35.3955 9.22276H39.2847C39.4128 9.22276 39.5214 9.11408 39.5214 8.98599V5.43835C39.5214 5.31027 39.6301 5.20159 39.7582 5.20159H40.7635C40.8916 5.20159 41.0003 5.31027 41.0003 5.43835V13.3681C41.0003 13.4962 40.8916 13.6049 40.7635 13.6049H39.7582C39.6301 13.6049 39.5214 13.4962 39.5214 13.3681V10.8258C39.5214 10.6977 39.4128 10.589 39.2847 10.589H35.3955ZM45.7434 5.20159C45.8715 5.20159 45.9801 5.31027 45.9801 5.43835V13.3681C45.9801 13.4962 45.8715 13.6049 45.7434 13.6049H44.7381C44.61 13.6049 44.5013 13.4962 44.5013 13.3681V5.43835C44.5013 5.31027 44.61 5.20159 44.7381 5.20159H45.7434ZM62.2201 13.7524C59.6351 13.7524 57.838 11.7845 57.838 9.41295C57.838 7.04139 59.6545 5.05409 62.2395 5.05409C64.8245 5.05409 66.6217 7.02198 66.6217 9.39354C66.6217 11.7651 64.809 13.7524 62.2201 13.7524ZM62.2201 6.42036C60.5511 6.42036 59.3789 7.74393 59.3789 9.38966C59.3789 11.0354 60.5744 12.3822 62.2434 12.3822C63.9124 12.3822 65.0846 11.0587 65.0846 9.41295C65.0846 7.76722 63.8891 6.42036 62.2201 6.42036ZM72.2226 13.3681C72.2226 13.4962 72.1139 13.6049 71.9858 13.6049H70.9805C70.8524 13.6049 70.7437 13.4962 70.7437 13.3681V6.80462C70.7437 6.67653 70.6351 6.56785 70.507 6.56785H68.3256C68.1975 6.56785 68.0888 6.45917 68.0888 6.33108V5.43447C68.0888 5.30638 68.1975 5.19771 68.3256 5.19771H74.6718C74.7998 5.19771 74.9085 5.30638 74.9085 5.43447V6.33108C74.9085 6.45917 74.7998 6.56785 74.6718 6.56785H72.4904C72.3623 6.56785 72.2536 6.67653 72.2536 6.80462L72.2226 13.3681ZM77.4586 5.43835C77.4586 5.31027 77.5673 5.20159 77.6954 5.20159H78.7007C78.8288 5.20159 78.9375 5.31027 78.9375 5.43835V12.0213C78.9375 12.1494 79.0461 12.258 79.1742 12.258H83.1061C83.2342 12.258 83.3429 12.3667 83.3429 12.4948V13.372C83.3429 13.5001 83.2342 13.6088 83.1061 13.6088H77.6993C77.5712 13.6088 77.4625 13.5001 77.4625 13.372L77.4586 5.43835ZM91.6725 6.29227C91.6725 6.42036 91.5638 6.52904 91.4357 6.52904H87.1622C87.0341 6.52904 86.9255 6.63772 86.9255 6.76581V9.00928C86.9255 9.13736 87.0341 9.24605 87.1622 9.24605H90.3683C90.4964 9.24605 90.6051 9.35472 90.6051 9.48281V10.3173C90.6051 10.4454 90.4964 10.5541 90.3683 10.5541H87.1622C87.0341 10.5541 86.9255 10.6628 86.9255 10.7909V12.029C86.9255 12.1571 87.0341 12.2658 87.1622 12.2658H91.5017C91.6298 12.2658 91.7385 12.3745 91.7385 12.5026V13.3371C91.7385 13.4652 91.6298 13.5738 91.5017 13.5738H85.6873C85.5592 13.5738 85.4505 13.4652 85.4505 13.3371V5.43835C85.4505 5.31027 85.5592 5.20159 85.6873 5.20159H91.4357C91.5638 5.20159 91.6725 5.31027 91.6725 5.43835V6.29227ZM55.7653 8.02339C55.7653 6.31168 54.5271 5.20159 52.5825 5.20159H49.5045C49.3764 5.20159 49.2677 5.31027 49.2677 5.43835V13.3681C49.2677 13.4962 49.3764 13.6049 49.5045 13.6049H50.5098C50.6379 13.6049 50.7466 13.4962 50.7466 13.3681V11.1441C50.7466 11.016 50.8552 10.9073 50.9833 10.9073H52.4156C54.2709 10.9112 55.7653 9.9253 55.7653 8.02339ZM50.9794 9.56432C50.8514 9.56432 50.7427 9.45564 50.7427 9.32755V6.78521C50.7427 6.65712 50.8514 6.54845 50.9794 6.54845H52.4544C53.5645 6.54845 54.2709 7.06079 54.2709 8.06609C54.2709 8.9627 53.5645 9.58373 52.4544 9.58373H50.9794V9.56432ZM27.4036 6.42036C28.2808 6.42036 28.9639 6.78521 29.5849 7.31697C29.6936 7.40236 29.8411 7.40236 29.9265 7.29368L30.567 6.54456C30.6523 6.43588 30.6329 6.28839 30.5437 6.203C29.7945 5.53927 28.8552 5.05021 27.423 5.05021C24.8806 5.05021 23.0835 7.0181 23.0835 9.40907V9.36637C23.0835 11.7612 24.8806 13.7252 27.423 13.7252C28.8319 13.7252 29.7751 13.2556 30.5437 12.5724C30.6523 12.487 30.6523 12.3357 30.567 12.2309L29.9265 11.4818C29.8411 11.3731 29.6897 11.3731 29.5849 11.4585C28.9639 11.9941 28.2808 12.3551 27.4036 12.3551C25.8005 12.3551 24.6245 11.0315 24.6245 9.38578C24.6478 7.74781 25.8005 6.42036 27.4036 6.42036Z" fill="currentColor"></path>
    </g>
    <defs>
        <clipPath id="clip0_1460_982">
            <rect width="96.9972" height="18.9802" fill="currentColor" transform="translate(0.443329)"></rect>
        </clipPath>
    </defs>
</svg>