<svg width="66" height="23" viewBox="0 0 66 23" fill="none"
    xmlns="http://www.w3.org/2000/svg" class="mx-6 h-20 " style="color:#FCFCFC">
    <g clip-path="url(#clip0_2025_13145)">
        <path d="M19.426 15.6923L15.7237 14.7985L14.7405 12.8587L19.5829 8.47959C21.0188 9.04107 21.9762 10.4625 21.9762 12.0533C21.9762 13.6904 20.9305 15.1791 19.426 15.6923ZM16.6428 20.2109C16.0661 20.2109 15.501 20.0112 15.0394 19.6448L15.7713 15.7085L19.1344 16.5208C19.2412 16.8204 19.2952 17.1402 19.2952 17.4732C19.2952 18.9829 18.1056 20.2109 16.6428 20.2109ZM14.1761 19.6449C13.6684 20.419 12.9844 21.0528 12.1841 21.4906C11.3839 21.9283 10.4918 22.1568 9.58617 22.156C6.52296 22.156 4.03081 19.5835 4.03081 16.4221C4.03081 16.034 4.0674 15.6507 4.13926 15.2808L8.97167 10.7727L13.9024 13.0926L14.9941 15.2458L14.1761 19.6449ZM1.2665 10.9741C1.2665 9.3375 2.31209 7.84946 3.81597 7.33514L7.50991 8.23575L8.37696 10.148L3.65461 14.5541C2.22146 13.9906 1.2665 12.5677 1.2665 10.9741ZM6.5997 2.81621C7.18204 2.81602 7.74833 3.01329 8.21147 3.37769L7.47398 7.32778L4.10821 6.50755C4.00126 6.20783 3.94741 5.88807 3.94741 5.55465C3.94741 4.04472 5.137 2.81621 6.5997 2.81621ZM9.08866 3.38515C10.1248 1.82777 11.8292 0.898882 13.6568 0.898882C16.7116 0.898882 19.1966 3.46436 19.1966 6.61775C19.1966 7.00347 19.1616 7.37204 19.0897 7.74177L14.1344 12.2235L9.22309 9.91244L8.26429 7.7992L9.08866 3.38515ZM22.8441 12.0641C22.8441 10.1223 21.6777 8.42469 19.9226 7.76414C20.0006 7.35407 20.0399 6.93716 20.0399 6.51927C20.0399 2.90966 17.1949 -0.0270996 13.6974 -0.0270996C11.6545 -0.0270996 9.754 0.984198 8.55991 2.68829C7.97063 2.21584 7.24555 1.95972 6.49941 1.96044C4.64315 1.96044 3.13299 3.51927 3.13299 5.43524C3.13299 5.85872 3.20616 6.2639 3.34351 6.64622C1.59852 7.29621 0.398605 9.03362 0.398605 10.9632C0.398605 12.915 1.57066 14.6202 3.33385 15.2761C3.25745 15.6862 3.21872 16.1029 3.21817 16.5205C3.21817 20.1219 6.05631 23.0515 9.54526 23.0515C11.5933 23.0515 13.4926 22.0361 14.68 20.3249C15.2711 20.804 15.9938 21.0669 16.7434 21.0669C18.5995 21.0669 20.1097 19.5088 20.1097 17.5927C20.1097 17.1692 20.0365 16.7636 19.8992 16.381C21.6442 15.7316 22.8441 13.9937 22.8441 12.0641Z" fill="currentColor"></path>
        <path d="M31.7161 16.1553L32.1605 16.1065L32.1888 17.0433C31.1932 17.1965 30.1888 17.2813 29.1823 17.2971C28.0761 17.2971 27.2914 16.9653 26.8281 16.3016C26.3649 15.638 26.1379 14.6035 26.1379 13.208C26.1379 10.4168 27.2126 9.02127 29.3619 9.02127C30.4019 9.02127 31.1772 9.32381 31.6878 9.91912C32.1983 10.5144 32.4536 11.4611 32.4536 12.7395L32.3874 13.6471H27.3009C27.3009 14.5255 27.4521 15.1793 27.7641 15.599C28.0761 16.0186 28.6056 16.2333 29.3714 16.2333C30.1538 16.2509 30.9365 16.2248 31.7161 16.1553ZM31.3001 12.7103C31.3001 11.7343 31.1489 11.0414 30.8463 10.6413C30.5438 10.2412 30.0521 10.0362 29.3714 10.0362C28.6907 10.0362 28.1707 10.2509 27.8303 10.6706C27.4899 11.0902 27.3103 11.7734 27.3009 12.7103H31.3001ZM34.0609 17.1507V5.73242H35.2143V17.1507H34.0609ZM42.5038 11.5977V15.5111C42.5038 15.9113 43.4587 15.9893 43.4587 15.9893L43.4019 17.0433C42.5888 17.0433 41.9176 17.1117 41.511 16.7115C40.6385 17.1089 39.6945 17.3118 38.7409 17.3068C38.0318 17.3068 37.4928 17.1019 37.1241 16.6822C36.7554 16.2626 36.5663 15.6771 36.5663 14.8963C36.5663 14.1156 36.7554 13.5495 37.1336 13.1885C37.5118 12.8274 38.1074 12.5931 38.9205 12.5151L41.3408 12.2808V11.5977C41.3408 11.0609 41.2274 10.6706 41.0005 10.4364C40.7736 10.2021 40.4616 10.085 40.0739 10.085H37.039V9.03103H39.9983C40.8681 9.03103 41.5016 9.23598 41.8987 9.65562C42.2958 10.0753 42.5038 10.7194 42.5038 11.5977ZM37.7576 14.8378C37.7576 15.8137 38.1452 16.3016 38.9299 16.3016C39.6319 16.3031 40.3289 16.181 40.991 15.9405L41.3408 15.8137V13.1885L39.0623 13.4129C38.599 13.452 38.2681 13.5886 38.0601 13.8228C37.8521 14.057 37.7576 14.3986 37.7576 14.8378ZM47.0136 10.0948C45.8979 10.0948 45.3307 10.4949 45.3307 11.3049C45.3307 11.6758 45.463 11.9393 45.7183 12.0954C45.9736 12.2516 46.5598 12.4077 47.4768 12.5736C48.3939 12.7395 49.0368 12.964 49.415 13.2665C49.7932 13.5691 49.9823 14.1156 49.9823 14.9354C49.9823 15.7551 49.727 16.3504 49.2165 16.731C48.7059 17.1117 47.9685 17.3068 46.9852 17.3068C46.3518 17.3068 44.2245 17.0629 44.2245 17.0629L44.2907 16.0284C45.5103 16.1455 46.399 16.2431 46.9947 16.2431C47.5903 16.2431 48.0441 16.1455 48.3561 15.9503C48.6681 15.7551 48.8288 15.4233 48.8288 14.9646C48.8288 14.5059 48.6965 14.1937 48.4318 14.0277C48.167 13.8618 47.5808 13.7057 46.6732 13.5593C45.7656 13.4129 45.1227 13.1982 44.7445 12.9054C44.3663 12.6127 44.1772 12.0857 44.1772 11.3147C44.1772 10.5437 44.4419 9.96792 44.9714 9.59707C45.5008 9.22622 46.1627 9.04079 46.9474 9.04079C47.5714 9.04079 49.7459 9.2067 49.7459 9.2067V10.2509C48.6019 10.1826 47.6659 10.0948 47.0136 10.0948ZM55.5605 10.2314H53.1118V14.0375C53.1118 14.9451 53.1779 15.5502 53.3008 15.8332C53.4238 16.1162 53.7358 16.2626 54.2179 16.2626L55.5888 16.165L55.6645 17.1507C55.1463 17.2498 54.6217 17.3085 54.095 17.3264C53.2914 17.3264 52.743 17.1214 52.431 16.7213C52.119 16.3212 51.9678 15.5502 51.9678 14.4181V10.2314H50.871V9.19694H51.9678V6.75714H53.1118V9.18718H55.5605V10.2314ZM57.1678 7.39149V6.01544H58.3212V7.40125L57.1678 7.39149ZM57.1678 17.1507V9.19694H58.3212V17.1507H57.1678ZM63.3321 9.03103C63.6725 9.03103 64.2492 9.09935 65.0623 9.22622L65.431 9.27501L65.3838 10.2412C64.7815 10.1603 64.1756 10.1114 63.5685 10.0948C62.6987 10.0948 62.103 10.3095 61.791 10.7389C61.479 11.1683 61.3183 11.9686 61.3183 13.1299C61.3183 14.2912 61.4601 15.1013 61.7532 15.5599C62.0463 16.0186 62.6514 16.2431 63.5779 16.2431L65.3932 16.0967L65.4405 17.0824C64.4856 17.2288 63.767 17.3068 63.2943 17.3068C62.0936 17.3068 61.2616 16.9848 60.8078 16.3504C60.3539 15.7161 60.1176 14.6426 60.1176 13.1299C60.1176 11.6172 60.3634 10.5535 60.855 9.9484C61.3467 9.34333 62.1787 9.03103 63.3321 9.03103Z" fill="currentColor"></path>
    </g>
    <defs>
        <clipPath id="clip0_2025_13145">
            <rect width="65" height="23" fill="currentColor" transform="translate(0.440491)"></rect>
        </clipPath>
    </defs>
</svg>