<svg width="47" height="19" viewBox="0 0 47 19" fill="none"
    xmlns="http://www.w3.org/2000/svg" class="mx-6 h-20 " style="color:#FCFCFC">
    <g clip-path="url(#clip0_2025_13159)">
        <path d="M26.4054 0.541504V11.3466C26.4054 13.468 26.919 14.4362 29.1577 14.4362C29.6879 14.4362 30.4165 14.2971 30.9666 14.1771L30.6127 12.0117C30.2405 12.0917 29.915 12.0821 29.6795 12.088C28.7004 12.1125 28.785 11.7846 28.785 10.8437V6.77645H30.6485V4.97407H28.785V0.541504H26.4054ZM34.2025 0.541504L31.8229 0.541852L31.8232 2.37821V14.4363H35.3768V12.5939H34.2025L34.2025 0.541504ZM5.04677 0.541563C2.59231 0.541563 2.17341 1.39289 2.17341 3.35459V4.97413L0.965424 5.1766V6.77646H2.17341V12.5939H0.96548V14.4365L5.74852 14.436V12.5939H4.55307V6.77645H6.34855V4.97407H4.55307V3.57256C4.55307 2.71141 4.7717 2.62348 5.63643 2.62348C5.87193 2.62348 6.05678 2.63418 6.42935 2.69434L6.75541 0.722363C6.20528 0.621348 5.57689 0.541563 5.04677 0.541563ZM10.0401 3.09462V3.71061H10.3304V4.54818H10.3469C8.07099 4.97523 6.34621 7.00651 6.34621 9.44974C6.34621 12.2032 8.5362 14.4353 11.2377 14.4353C12.1597 14.4353 13.0219 14.175 13.758 13.723L14.1867 14.4363H16.7002V12.0117H16.1314L16.1298 4.46419H13.7503V5.17201C13.2602 4.87232 12.7142 4.65803 12.1324 4.54818H12.1458V3.71061H12.4362V3.09462H10.0401ZM21.4649 4.44846C19.2309 4.44846 17.8895 5.25042 17.8895 7.2947C17.8895 9.45445 19.545 10.1803 21.631 10.5436C22.7383 10.7725 23.077 11.0018 23.077 11.4794C23.077 11.8236 22.8859 12.4709 21.7047 12.4709C21.2802 12.4709 20.4672 12.4862 19.6917 12.3335L19.6928 12.0117H17.8908V13.823C18.9975 14.1092 20.448 14.4363 21.9428 14.4363C24.1768 14.4363 25.2381 13.3504 25.2381 11.2485C25.2381 9.03221 23.4769 8.61356 21.7233 8.2123C20.5236 7.94493 20.3699 7.69674 20.3699 7.23772C20.3699 6.91327 20.5049 6.31472 21.6123 6.31472C22.0001 6.31472 22.715 6.31661 23.4349 6.45046V6.77315H25.2365V4.97407C24.1291 4.68768 22.9784 4.44846 21.4649 4.44846ZM41.3995 4.97407V6.77477H42.57L40.8422 11.1074L39.1143 6.77477H40.2873V4.97413H35.3768V6.77477H36.55L39.5999 14.424C39.2468 15.5244 38.118 16.1564 37.1172 16.1564C36.9012 16.1564 36.4895 16.117 36.1752 16.057L35.96 18.2584C36.4498 18.3783 37.1561 18.4383 37.6867 18.4383C39.8447 18.4383 41.2616 16.4427 42.1243 14.3225L45.1343 6.77471H46.3074V4.97407L41.3995 4.97407ZM11.3802 6.88222C12.6328 6.95046 13.6419 7.95193 13.7509 9.21684V9.30018H13.4653V9.59076H13.751V9.67032C13.6425 10.9358 12.6332 11.9379 11.3802 12.0062V11.7211H11.0951V12.0054C9.81797 11.9296 8.79639 10.8837 8.72975 9.57984H9.01313V9.28926H8.73123C8.80697 7.99447 9.82433 6.95859 11.0951 6.88309V7.16884H11.3802V6.88222ZM12.3055 8.18059L11.3858 8.99742C11.3394 8.98046 11.2898 8.97076 11.2379 8.97076C10.9897 8.97076 10.7888 9.18157 10.7888 9.44132C10.7888 9.70136 10.9897 9.91211 11.2379 9.91211C11.486 9.91211 11.6873 9.70136 11.6873 9.44132C11.6873 9.39198 11.68 9.34447 11.6665 9.29978L12.4866 8.36522L12.3055 8.18059ZM45.3953 12.6038C44.8952 12.6038 44.4926 13.009 44.4925 13.5187C44.4925 14.0284 44.8952 14.4334 45.3953 14.4334C45.8953 14.4334 46.3004 14.0284 46.3004 13.5187C46.3004 13.009 45.8954 12.6038 45.3953 12.6038ZM45.3953 12.7581C45.8107 12.7581 46.1491 13.0951 46.1491 13.5187C46.1491 13.9421 45.8107 14.2896 45.3953 14.2896C44.9799 14.2896 44.6438 13.9421 44.6438 13.5187C44.6438 13.0952 44.9799 12.7581 45.3953 12.7581ZM45.0517 13.069V13.9682H45.2542V13.6963H45.3798L45.5619 13.9682H45.8107L45.5902 13.6597C45.7029 13.6258 45.7748 13.5263 45.7748 13.3802C45.7748 13.1814 45.6388 13.069 45.4208 13.069H45.0517ZM45.2542 13.2494H45.4208C45.5082 13.2494 45.5697 13.2862 45.5697 13.3803C45.5697 13.4794 45.5082 13.5159 45.4158 13.5159H45.2542V13.2494Z" fill="currentColor"></path>
    </g>
    <defs>
        <clipPath id="clip0_2025_13159">
            <rect width="46.3956" height="18.98" fill="currentColor" transform="translate(0.43866)"></rect>
        </clipPath>
    </defs>
</svg>