<svg width="71" height="19" viewBox="0 0 71 19" fill="none"
    xmlns="http://www.w3.org/2000/svg" class="mx-6 h-20 " style="color:#FCFCFC">
    <g clip-path="url(#clip0_2423_12875)">
        <path d="M10.0895 17.7568C9.03306 17.9424 7.95799 17.998 6.8459 18.1461L3.45384 8.21122V18.5725C2.39736 18.6837 1.43354 18.832 0.432617 18.9802V0H3.25007L7.10535 10.7692V0H10.0895V17.7568ZM15.9282 6.95078C17.0775 6.95078 18.8383 6.89515 19.8948 6.89515V9.86075C18.5787 9.86075 17.0404 9.86075 15.9282 9.91637V14.3279C17.6706 14.2167 19.4129 14.0683 21.1737 14.0127V16.8669L12.9625 17.5158V0H21.1737V2.96567H15.9282V6.95078ZM32.2022 2.96574H29.1254V16.6078C28.1245 16.6078 27.1236 16.6078 26.1599 16.6447V2.96574H23.083V0H32.2024L32.2022 2.96574ZM37.0214 6.74694H41.0807V9.71254H37.0214V16.441H34.1112V0H42.3967V2.96567H37.0214V6.74694ZM47.2159 13.8459C48.9027 13.8829 50.6078 14.0129 52.2575 14.1054V17.034C49.607 16.8671 46.9564 16.7005 44.2503 16.6447V0H47.2159V13.8459ZM54.7598 17.2379C55.7051 17.2936 56.706 17.3492 57.6698 17.4603V0H54.7598V17.2379ZM70.6633 0L66.9005 9.02676L70.6633 18.9802C69.551 18.832 68.4389 18.6281 67.3268 18.4427L65.1953 12.9563L63.0268 17.998C61.9516 17.8125 60.9136 17.7568 59.8387 17.6085L63.657 8.91545L60.2093 0H63.3973L65.3435 4.98603L67.4195 0L70.6633 0Z" fill="currentColor"></path>
    </g>
    <defs>
        <clipPath id="clip0_2423_12875">
            <rect width="70.2306" height="18.9802" fill="currentColor" transform="translate(0.432617)"></rect>
        </clipPath>
    </defs>
</svg>