<svg width="104" height="27" viewBox="0 0 104 27" fill="none"
    xmlns="http://www.w3.org/2000/svg" class="mx-6 h-20 " style="color:#FCFCFC">
    <path d="M23.9338 7.38175H21.1925C21.1925 7.38175 21.1925 7.38175 21.1944 7.38367H14.4665C11.0456 7.38367 8.26172 10.1589 8.26172 13.5693H10.4297C10.4297 11.3503 12.2406 9.54499 14.4665 9.54499H22.6848H25.0458C24.7524 8.779 24.3778 8.05536 23.9319 7.37982L23.9338 7.38175Z" fill="#A1A1AA"></path>
    <path d="M5.5036 15.4304C5.37812 14.8299 5.30862 14.2083 5.30862 13.5693C5.30862 8.53454 9.4168 4.439 14.4671 4.439C15.7837 4.439 17.0366 4.71807 18.1679 5.22039H22.0831C20.0695 3.39394 17.3957 2.2796 14.4671 2.2796C8.2218 2.2796 3.14062 7.34514 3.14062 13.5712C3.14062 14.2044 3.19661 14.826 3.297 15.4323H5.5036V15.4304Z" fill="currentColor"></path>
    <path d="M20.6708 13.5693H18.5028C18.5028 15.7883 16.692 17.5936 14.4661 17.5936H6.24777C6.24777 17.5936 6.24777 17.5917 6.24777 17.5898H3.88672C4.18016 18.3557 4.55468 19.0794 5.00064 19.7549H7.74007H14.468C17.8889 19.7549 20.6727 16.9797 20.6727 13.5693H20.6708Z" fill="#A1A1AA"></path>
    <path d="M25.6356 11.7082H23.429C23.5545 12.3106 23.624 12.9322 23.624 13.5693C23.624 18.604 19.5158 22.6996 14.4656 22.6996C13.147 22.6996 11.8941 22.4205 10.7609 21.9182H6.84766C8.86121 23.7465 11.535 24.8609 14.4656 24.8609C20.7108 24.8609 25.792 19.7953 25.792 13.5693C25.792 12.9342 25.736 12.3144 25.6356 11.7082Z" fill="currentColor"></path>
    <path d="M33.1914 13.5693C33.1914 10.59 35.3864 8.40173 38.4965 8.40173C41.6066 8.40173 43.8016 10.59 43.8016 13.5693C43.8016 16.5486 41.6066 18.7349 38.4965 18.7349C35.3864 18.7349 33.1914 16.5466 33.1914 13.5693ZM41.819 13.5693C41.819 11.6235 40.4773 10.2109 38.4965 10.2109C36.5158 10.2109 35.1741 11.6235 35.1741 13.5693C35.1741 15.515 36.5158 16.9431 38.4965 16.9431C40.4773 16.9431 41.819 15.515 41.819 13.5693Z" fill="currentColor"></path>
    <path d="M45.3398 8.59998H50.1102C52.0002 8.59998 52.9905 9.67968 52.9905 11.1828C52.9905 12.1855 52.5176 12.9611 51.6951 13.3711V13.4018C52.7917 13.7521 53.4481 14.6625 53.4481 15.848C53.4481 17.3973 52.4423 18.5386 50.5059 18.5386H45.3379V8.59998H45.3398ZM49.8669 12.6282C50.6758 12.6282 51.0561 12.1412 51.0561 11.5177C51.0561 10.8941 50.7511 10.4091 49.8515 10.4091H47.2916V12.6282H49.8669ZM50.172 16.7468C51.087 16.7468 51.4519 16.2156 51.4519 15.5612C51.4519 14.9069 50.9944 14.3603 50.1874 14.3603H47.2916V16.7468H50.172Z" fill="currentColor"></path>
    <path d="M54.3476 15.6671H56.2531C56.2685 16.4562 56.8631 16.9893 58.0523 16.9893C59.2415 16.9893 59.8516 16.4562 59.8516 15.6671C59.8516 14.801 58.9211 14.6336 57.84 14.4354C56.3303 14.1621 54.5465 13.8426 54.5465 11.5331C54.5465 9.69509 55.948 8.40369 58.0678 8.40369C60.1875 8.40369 61.5119 9.6335 61.5891 11.458H59.7454C59.73 10.6978 59.1663 10.1512 58.0832 10.1512C57.0002 10.1512 56.4365 10.744 56.4365 11.4734C56.4365 12.3395 57.367 12.5069 58.4481 12.7052C59.9578 12.9785 61.7551 13.2979 61.7551 15.6075C61.7551 17.5378 60.2763 18.7368 58.0504 18.7368C55.8245 18.7368 54.392 17.5667 54.3457 15.6671H54.3476Z" fill="currentColor"></path>
    <path d="M63.2969 8.59998H70.6445V10.4091H65.2487V12.6282H69.7603V14.3603H65.2487V16.7468H70.6445V18.5405H63.2969V8.6019V8.59998Z" fill="currentColor"></path>
    <path d="M72.3652 8.59998H76.5429C79.0739 8.59998 80.1858 9.98376 80.1858 11.8833C80.1858 13.448 79.4387 14.5277 78.097 14.9685L80.5507 18.5405H78.2341L76.1163 15.1821H74.317V18.5405H72.3652V8.6019V8.59998ZM76.5719 13.3711C77.8055 13.3711 78.2186 12.7321 78.2186 11.8814C78.2186 11.0307 77.8074 10.4072 76.5719 10.4072H74.3151V13.3711H76.5719Z" fill="currentColor"></path>
    <path d="M80.8867 8.59998H83.0045L85.6107 16.2733L88.2015 8.59998H90.2749L86.6629 18.5386H84.5142L80.8867 8.59998Z" fill="currentColor"></path>
    <path d="M90.9492 12.7186C90.9492 10.0588 92.4743 8.40369 95.2929 8.40369C98.1115 8.40369 99.6675 10.0608 99.6675 12.7186V18.5386H97.7157V15.5593H92.8527V18.5386H90.9473V12.7186H90.9492ZM97.7177 13.7983V12.7186C97.7177 11.1231 96.9261 10.2109 95.2794 10.2109C93.6326 10.2109 92.8566 11.1231 92.8566 12.7186V13.7983H97.7196H97.7177Z" fill="currentColor"></path>
</svg>