<svg width="74" height="23" viewBox="0 0 74 23" fill="none" xmlns="http://www.w3.org/2000/svg" class="mx-6 h-20 " style="color:#FCFCFC"><g clip-path="url(#clip0_2025_13149)"><path d="M35.5536 5.33757C37.3437 5.33757 38.9368 6.24086 39.9386 7.65327V0.0656738H41.9751V16.9653H39.9386V15.0109C38.9368 16.4398 37.3602 17.3266 35.5536 17.3266C32.2032 17.3266 29.362 14.6989 29.362 11.3321C29.362 7.98173 32.2032 5.33757 35.5536 5.33757ZM35.5536 15.5201C38.2142 15.5201 39.9386 13.7463 39.9386 11.3321C39.9386 8.91786 38.2142 7.14414 35.5536 7.14414C33.1886 7.14414 31.3985 8.83575 31.3985 11.3321C31.3985 13.8284 33.1886 15.5201 35.5536 15.5201ZM25.9624 7.65327C24.9605 6.24086 23.3839 5.33757 21.5773 5.33757C18.227 5.33757 15.3857 7.96531 15.3857 11.3321C15.3857 14.6825 18.227 17.3266 21.5773 17.3266C23.351 17.3266 24.9277 16.4233 25.9624 15.0109V16.9653H27.9989V5.69889H25.9624V7.65327ZM25.9624 11.3321C25.9624 13.7135 24.2215 15.5201 21.5773 15.5201C19.2124 15.5201 17.4222 13.8284 17.4222 11.3321C17.4222 8.83575 19.2124 7.14414 21.5773 7.14414C24.2379 7.14414 25.9624 8.91786 25.9624 11.3321ZM0.424042 11.0365V11.6441C0.801779 11.6441 1.16309 11.7098 1.50798 11.8576C1.85287 12.0055 2.16492 12.2025 2.42769 12.4653C2.69046 12.7281 2.90397 13.0401 3.03536 13.385C3.18317 13.7299 3.24886 14.0912 3.24886 14.469H3.82368C3.82368 13.7299 4.1193 13.0073 4.66127 12.4817C5.20324 11.9562 5.90944 11.6606 6.66492 11.6606V11.0529C6.28718 11.0529 5.92587 10.9872 5.58098 10.8394C5.23609 10.6916 4.92404 10.4945 4.66127 10.2317C4.39849 9.96896 4.18499 9.65692 4.0536 9.31203C3.92222 8.96714 3.8401 8.60582 3.8401 8.22808H3.26528C3.26528 8.96714 2.96966 9.68976 2.42769 10.2153C1.88572 10.7409 1.16309 11.0365 0.424042 11.0365ZM8.1266 7.16057H3.24886V5.354H8.1266C11.5591 5.354 14.2525 8.031 14.2525 11.3157C14.2525 14.6003 11.5591 17.2774 8.1266 17.2774H5.28536V22.5657H3.24886V15.4708H8.1266C10.508 15.4708 12.216 13.7792 12.216 11.2992C12.216 8.81932 10.508 7.16057 8.1266 7.16057ZM54.1284 7.65327C53.1266 6.24086 51.55 5.33757 49.7434 5.33757C46.393 5.33757 43.5518 7.96531 43.5518 11.3321C43.5518 14.6825 46.393 17.3266 49.7434 17.3266C51.5335 17.3266 53.1266 16.4233 54.1284 15.0109V16.9653H56.1649V0.0656738H54.1284V7.65327ZM54.1284 11.3321C54.1284 13.7463 52.404 15.5201 49.7434 15.5201C47.3784 15.5201 45.5883 13.8284 45.5883 11.3321C45.5883 8.83575 47.3784 7.14414 49.7434 7.14414C52.404 7.14414 54.1284 8.91786 54.1284 11.3321ZM58.2178 16.9653V0.0656738H60.2543V16.9653H58.2178ZM73.6229 12.1204C73.6229 8.40874 71.7343 5.37042 67.8091 5.37042C64.3766 5.37042 61.7324 8.0967 61.7324 11.3321C61.7324 14.5675 64.393 17.2938 67.8091 17.2938C70.5354 17.2938 72.5554 15.5857 73.3273 13.8449H71.1266C70.3054 15.0766 69.2215 15.7171 67.8091 15.7171C65.7726 15.7171 64.1302 14.3047 63.8182 12.1204H73.6229ZM67.8091 6.94706C69.9934 6.94706 71.57 8.70436 71.57 10.5438H63.8182C64.1302 8.35947 65.7726 6.94706 67.8091 6.94706Z" fill="currentColor"></path></g><defs><clipPath id="clip0_2025_13149"><rect width="73.2482" height="22.5" fill="currentColor" transform="translate(0.440491)"></rect></clipPath></defs></svg>