<svg width="28" height="19" viewBox="0 0 28 19" fill="none"
    xmlns="http://www.w3.org/2000/svg" class="mx-6 h-20 scale-150" style="color:#FCFCFC">
    <g clip-path="url(#clip0_1460_1028)">
        <path fill-rule="evenodd" clip-rule="evenodd" d="M12.0633 2.11721C12.9358 1.20894 14.1502 0.646491 15.4917 0.646491C17.2804 0.646491 18.8306 1.64022 19.6654 3.12088C20.4063 2.78964 21.2089 2.61863 22.0205 2.61904C25.2402 2.61904 27.8537 5.25243 27.8537 8.50193C27.8537 11.7514 25.2402 14.3848 22.0205 14.3848C21.627 14.3848 21.2434 14.3453 20.8678 14.2705C20.1374 15.5723 18.7412 16.4567 17.1512 16.4567C16.5039 16.458 15.8649 16.3112 15.283 16.0274C14.5427 17.7665 12.8186 18.9888 10.8112 18.9888C8.71446 18.9888 6.93569 17.6671 6.25001 15.8088C5.94483 15.8732 5.63377 15.9056 5.32187 15.9054C2.82761 15.9054 0.810333 13.8583 0.810333 11.3442C0.810333 9.65485 1.7186 8.18413 3.0661 7.38915C2.78023 6.7306 2.63308 6.02023 2.63383 5.30231C2.63383 2.40062 4.98897 0.0554199 7.89066 0.0554199C9.58994 0.0554199 11.1103 0.86531 12.0643 2.12238" fill="currentColor"></path>
        <path fill-rule="evenodd" clip-rule="evenodd" d="M4.74952 9.86815C4.73253 9.91247 4.75559 9.92171 4.76105 9.92956C4.81183 9.96633 4.86341 9.99296 4.91508 10.0229C5.19134 10.169 5.45169 10.2117 5.72398 10.2117C6.27848 10.2117 6.6233 9.91654 6.6233 9.44154V9.4322C6.6233 8.99297 6.23376 8.83298 5.87005 8.7187L5.82245 8.7033C5.54719 8.61406 5.30969 8.53635 5.30969 8.35549V8.34625C5.30969 8.19123 5.44881 8.07695 5.66346 8.07695C5.90195 8.07695 6.18616 8.15635 6.36801 8.25682C6.36801 8.25682 6.42187 8.2916 6.44145 8.23963C6.45208 8.2115 6.5448 7.96337 6.55473 7.93554C6.56527 7.90643 6.54678 7.88447 6.5278 7.87314C6.31912 7.74594 6.03094 7.65949 5.73282 7.65949L5.67747 7.65968C5.16967 7.65968 4.81491 7.96675 4.81491 8.40598V8.41542C4.81491 8.87849 5.20644 9.02954 5.57213 9.13388L5.63096 9.15217C5.89728 9.23405 6.12783 9.3052 6.12783 9.49202V9.50136C6.12783 9.67328 5.97777 9.80147 5.73729 9.80147C5.64378 9.80147 5.34576 9.79988 5.0228 9.59577C4.98375 9.57301 4.96149 9.55662 4.93138 9.53823C4.91548 9.52859 4.87573 9.5112 4.85844 9.56327L4.74913 9.86735M12.8679 9.86735C12.8509 9.91167 12.874 9.92092 12.8796 9.92877C12.9302 9.96554 12.982 9.99217 13.0337 10.0221C13.3099 10.1682 13.5703 10.2109 13.8425 10.2109C14.3971 10.2109 14.7419 9.91575 14.7419 9.44075V9.43141C14.7419 8.99218 14.3533 8.83219 13.9886 8.71791L13.941 8.7025C13.6658 8.61327 13.4283 8.53556 13.4283 8.3547V8.34546C13.4283 8.19044 13.5674 8.07616 13.782 8.07616C14.0205 8.07616 14.3037 8.15556 14.4866 8.25602C14.4866 8.25602 14.5404 8.2908 14.5601 8.23883C14.5707 8.21071 14.6635 7.96257 14.6724 7.93475C14.683 7.90563 14.6645 7.88367 14.6456 7.87234C14.4369 7.74515 14.1487 7.65869 13.8506 7.65869L13.7951 7.65889C13.2874 7.65889 12.9326 7.96595 12.9326 8.40518V8.41462C12.9326 8.8777 13.3241 9.02875 13.6898 9.13309L13.7485 9.15137C14.0159 9.23326 14.2454 9.30441 14.2454 9.49123V9.50057C14.2454 9.67248 14.0954 9.80068 13.8549 9.80068C13.7612 9.80068 13.4623 9.79909 13.1404 9.59497C13.1013 9.57222 13.0785 9.55652 13.0489 9.53744C13.0388 9.53108 12.992 9.51279 12.976 9.56248L12.8667 9.86656M18.4117 8.93643C18.4117 9.20474 18.3616 9.4164 18.2637 9.56645C18.1659 9.71452 18.0182 9.78706 17.8125 9.78706C17.6068 9.78706 17.4597 9.71512 17.3633 9.56745C17.2662 9.41839 17.2173 9.20573 17.2173 8.93742C17.2173 8.66912 17.2665 8.45844 17.3633 8.31038C17.4595 8.16331 17.6058 8.09275 17.8125 8.09275C18.0192 8.09275 18.1663 8.164 18.2637 8.31038C18.3622 8.45844 18.4117 8.66912 18.4117 8.93742M18.8748 8.43956C18.8292 8.28554 18.7585 8.15039 18.6641 8.0371C18.5696 7.92382 18.4505 7.8324 18.3084 7.76681C18.1673 7.70073 18.0003 7.66744 17.8115 7.66744C17.6227 7.66744 17.4567 7.70092 17.3146 7.76681C17.1735 7.83279 17.0533 7.92382 16.9589 8.0371C16.8647 8.15039 16.7939 8.28554 16.7482 8.43956C16.703 8.5926 16.68 8.75954 16.68 8.93742C16.68 9.1153 16.703 9.28225 16.7482 9.43528C16.7936 9.58931 16.8645 9.72446 16.9589 9.83774C17.0534 9.95103 17.1735 10.0415 17.3146 10.106C17.4567 10.1704 17.6237 10.2032 17.8115 10.2032C17.9993 10.2032 18.1663 10.1704 18.3074 10.106C18.4485 10.0417 18.5687 9.95103 18.6631 9.83774C18.7574 9.72446 18.8281 9.58931 18.8738 9.43528C18.9189 9.28225 18.9419 9.1153 18.9419 8.93742C18.9419 8.76054 18.9189 8.5926 18.8738 8.43956M22.6798 9.71154C22.6646 9.66652 22.6207 9.68351 22.6207 9.68351C22.5534 9.70925 22.4815 9.7331 22.405 9.74503C22.3279 9.75715 22.2421 9.76321 22.1516 9.76321C21.928 9.76321 21.7492 9.69653 21.622 9.56447C21.4938 9.4323 21.4222 9.21964 21.4232 8.93146C21.4239 8.66912 21.4873 8.47236 21.6011 8.32131C21.7134 8.17225 21.8863 8.09474 22.1149 8.09474C22.3056 8.09474 22.4517 8.1169 22.6048 8.1648C22.6048 8.1648 22.641 8.1806 22.6584 8.1328C22.6991 8.02051 22.7291 7.94002 22.7727 7.81679C22.785 7.78152 22.7548 7.76661 22.7438 7.76234C22.6838 7.73889 22.5421 7.70043 22.4347 7.68423C22.3344 7.66893 22.2181 7.66098 22.0869 7.66098C21.8922 7.66098 21.7192 7.69427 21.5712 7.76025C21.4231 7.82613 21.2979 7.91726 21.1985 8.03054C21.0992 8.14383 21.0236 8.27898 20.973 8.43301C20.9228 8.58604 20.8974 8.75398 20.8974 8.93186C20.8974 9.31544 21.0008 9.62647 21.2055 9.85404C21.4102 10.0826 21.7183 10.1979 22.1197 10.1979C22.3572 10.1979 22.6007 10.1499 22.7756 10.0806C22.7756 10.0806 22.809 10.0645 22.7945 10.0256L22.6802 9.71154M23.4901 8.67806C23.5122 8.529 23.5531 8.40478 23.6173 8.30839C23.7134 8.16132 23.8597 8.08083 24.0654 8.08083C24.2711 8.08083 24.4073 8.16172 24.5047 8.30839C24.5693 8.40528 24.5975 8.53397 24.608 8.67806L23.4851 8.67786L23.4901 8.67806ZM25.0502 8.35013C25.0108 8.20206 24.9131 8.05201 24.8495 7.98344C24.7481 7.87513 24.6498 7.79861 24.5514 7.75687C24.4093 7.69648 24.2566 7.66548 24.1022 7.66575C23.9064 7.66575 23.7286 7.69884 23.5845 7.76611C23.4404 7.83389 23.3192 7.9261 23.2238 8.04138C23.1285 8.15665 23.0568 8.29279 23.0111 8.44881C22.9654 8.60283 22.9423 8.77177 22.9423 8.94865C22.9423 9.12951 22.9663 9.29745 23.0134 9.44949C23.061 9.60253 23.1376 9.73668 23.2409 9.84798C23.3443 9.96027 23.4765 10.0477 23.6355 10.1093C23.7935 10.1704 23.9853 10.2021 24.2049 10.2014C24.658 10.2 24.8965 10.0991 24.9939 10.0444C25.0113 10.0347 25.0277 10.0179 25.0072 9.96951L24.9049 9.68232C24.8891 9.63949 24.8458 9.65499 24.8458 9.65499C24.7335 9.69693 24.5745 9.77225 24.2019 9.77126C23.9584 9.77086 23.7786 9.69902 23.6653 9.58643C23.55 9.47115 23.4924 9.30321 23.4834 9.06472L25.0535 9.06591C25.0535 9.06591 25.0949 9.06551 25.0991 9.02517C25.1008 9.00847 25.1529 8.7032 25.0523 8.35043L25.0502 8.35013ZM10.9393 8.67806C10.9614 8.529 11.0024 8.40478 11.0665 8.30839C11.1627 8.16132 11.3089 8.08083 11.5146 8.08083C11.7203 8.08083 11.8565 8.16172 11.9539 8.30839C12.0184 8.40528 12.0466 8.53397 12.0572 8.67806L10.9343 8.67786L10.9393 8.67806ZM12.4994 8.35013C12.4601 8.20206 12.3623 8.05201 12.2987 7.98344C12.1973 7.87513 12.0989 7.79861 12.0006 7.75687C11.8585 7.69648 11.7057 7.66548 11.5514 7.66575C11.3556 7.66575 11.1778 7.69884 11.0337 7.76611C10.8896 7.83389 10.7683 7.9261 10.6729 8.04138C10.5778 8.15665 10.506 8.29279 10.4603 8.44881C10.4147 8.60283 10.3917 8.77177 10.3917 8.94865C10.3917 9.12951 10.4155 9.29745 10.4629 9.44949C10.5104 9.60253 10.5871 9.73668 10.6894 9.84798C10.7928 9.96027 10.925 10.0477 11.084 10.1093C11.242 10.1704 11.4328 10.2021 11.6534 10.2014C12.1065 10.2 12.345 10.0991 12.4424 10.0444C12.4597 10.0347 12.4762 10.0179 12.4556 9.96951L12.3532 9.68232C12.3374 9.63949 12.2941 9.65499 12.2941 9.65499C12.1818 9.69693 12.0228 9.77225 11.6502 9.77126C11.4077 9.77086 11.2269 9.69902 11.1136 9.58643C10.9983 9.47115 10.9407 9.30321 10.9317 9.06472L12.5018 9.06591C12.5018 9.06591 12.5431 9.06551 12.5474 9.02517C12.5491 9.00847 12.6012 8.7032 12.5005 8.35043L12.4994 8.35013ZM7.55065 9.7016C7.48914 9.65251 7.48059 9.64049 7.46022 9.60859C7.42912 9.56059 7.41322 9.49232 7.41322 9.40487C7.41322 9.26774 7.45893 9.16837 7.55333 9.10179C7.55234 9.10198 7.68848 8.98453 8.00846 8.9885C8.15088 8.99105 8.29298 9.00317 8.43378 9.02477V9.73728H8.43398C8.43398 9.73728 8.23523 9.78011 8.01065 9.79362C7.69166 9.8128 7.55055 9.7018 7.55154 9.7021L7.55065 9.7016ZM8.17471 8.59856C8.11111 8.59389 8.02863 8.5916 7.93025 8.5916C7.7961 8.5916 7.66592 8.6083 7.54469 8.64109C7.42246 8.67408 7.31215 8.72516 7.21775 8.79313C7.12309 8.86067 7.04522 8.94907 6.99019 9.0515C6.93464 9.15485 6.90631 9.27609 6.90631 9.41322C6.90631 9.55234 6.93046 9.67258 6.97816 9.77096C7.0249 9.86854 7.09527 9.95291 7.18287 10.0164C7.27002 10.0798 7.37764 10.1267 7.50186 10.1545C7.62508 10.1827 7.7642 10.1969 7.91724 10.1969C8.07822 10.1969 8.23821 10.1834 8.39323 10.1572C8.52527 10.1345 8.6568 10.1089 8.78774 10.0805C8.84001 10.0685 8.89805 10.0527 8.89805 10.0527C8.9368 10.0428 8.93382 10.0014 8.93382 10.0014L8.93293 8.57044C8.93293 8.25642 8.84906 8.02289 8.6835 7.8788C8.51854 7.73471 8.27707 7.66217 7.96404 7.66217C7.84678 7.66217 7.65698 7.67807 7.54369 7.70083C7.54369 7.70083 7.20185 7.76721 7.06074 7.87771C7.06074 7.87771 7.02974 7.89679 7.04663 7.94002L7.15793 8.23814C7.17174 8.27679 7.2094 8.26357 7.2094 8.26357C7.2094 8.26357 7.22123 8.2589 7.23514 8.25066C7.53624 8.08669 7.91783 8.09166 7.91783 8.09166C8.08677 8.09166 8.21794 8.12594 8.30539 8.19302C8.39095 8.25871 8.43457 8.35798 8.43457 8.56666V8.63294C8.30042 8.61347 8.1762 8.60224 8.1762 8.60224L8.17471 8.59856ZM20.7951 7.79066C20.7973 7.78542 20.7985 7.77978 20.7986 7.77407C20.7986 7.76836 20.7975 7.76271 20.7953 7.75744C20.7931 7.75217 20.7898 7.7474 20.7858 7.74341C20.7817 7.73942 20.7768 7.73629 20.7715 7.73421C20.7448 7.72408 20.6115 7.69596 20.5092 7.6896C20.3124 7.67727 20.2031 7.71046 20.1047 7.75459C20.0076 7.79841 19.9 7.86886 19.8404 7.95035L19.8402 7.75955C19.8402 7.73332 19.8216 7.71215 19.7952 7.71215H19.3937C19.3677 7.71215 19.3488 7.73332 19.3488 7.75955V10.0948C19.3488 10.1074 19.3539 10.1195 19.3628 10.1284C19.3717 10.1374 19.3838 10.1424 19.3964 10.1424H19.8078C19.8204 10.1424 19.8325 10.1374 19.8414 10.1284C19.8503 10.1195 19.8553 10.1074 19.8553 10.0948V8.92222C19.8553 8.76521 19.8726 8.60919 19.9071 8.51081C19.9411 8.41353 19.9873 8.33592 20.0442 8.28027C20.0985 8.22652 20.165 8.18664 20.238 8.164C20.3065 8.14434 20.3774 8.13438 20.4487 8.13439C20.5306 8.13439 20.6206 8.15546 20.6206 8.15546C20.6508 8.15884 20.6676 8.14035 20.6778 8.11312C20.7048 8.04148 20.7812 7.82693 20.7961 7.7842" fill="#09090B"></path>
        <path fill-rule="evenodd" clip-rule="evenodd" d="M16.9526 6.71374C16.9017 6.69837 16.85 6.68609 16.7976 6.67697C16.7272 6.66522 16.6559 6.6597 16.5846 6.66047C16.3011 6.66047 16.0776 6.74057 15.9207 6.89877C15.7649 7.05578 15.6588 7.29497 15.6057 7.60968L15.5865 7.71591H15.2306C15.2306 7.71591 15.1872 7.71412 15.1781 7.76152L15.1196 8.08747C15.1156 8.11867 15.129 8.13815 15.1707 8.13795H15.5171L15.1656 10.0999C15.1381 10.2579 15.1066 10.3879 15.0717 10.4863C15.0373 10.5835 15.0038 10.6564 14.9624 10.7092C14.9224 10.7604 14.8844 10.7981 14.8189 10.82C14.7649 10.8382 14.7027 10.8466 14.6345 10.8466C14.5965 10.8466 14.546 10.8402 14.5088 10.8327C14.4715 10.8254 14.4521 10.817 14.4242 10.8053C14.4242 10.8053 14.3836 10.7898 14.3676 10.8306C14.3546 10.8638 14.2622 11.1177 14.2513 11.1491C14.2402 11.1802 14.2558 11.2046 14.2755 11.2117C14.3216 11.2282 14.3558 11.2387 14.4187 11.2535C14.5059 11.2741 14.5794 11.2754 14.6483 11.2754C14.7926 11.2754 14.9241 11.2551 15.0331 11.2157C15.1428 11.1761 15.2383 11.107 15.3227 11.0135C15.4141 10.9126 15.4715 10.807 15.5265 10.6629C15.5808 10.5201 15.6271 10.3428 15.6642 10.1362L16.0174 8.13795H16.5337C16.5337 8.13795 16.5772 8.13954 16.5863 8.09234L16.6447 7.76639C16.6488 7.73519 16.6355 7.71571 16.5935 7.71591H16.0924C16.0949 7.70458 16.1176 7.5283 16.1752 7.36234C16.1997 7.29149 16.2459 7.23435 16.2851 7.1951C16.3216 7.15771 16.3667 7.12969 16.4163 7.11341C16.4708 7.09658 16.5276 7.08839 16.5846 7.08917C16.6318 7.08917 16.6781 7.09483 16.7134 7.10218C16.762 7.11252 16.7808 7.11798 16.7936 7.12176C16.8446 7.13736 16.8515 7.12226 16.8615 7.09751L16.9814 6.76839C16.9937 6.73301 16.9637 6.71811 16.9526 6.71374ZM9.94935 10.104C9.94935 10.1303 9.93067 10.1516 9.90443 10.1516H9.48876C9.46242 10.1516 9.44374 10.1303 9.44374 10.104V6.75835C9.44374 6.73222 9.46242 6.71105 9.48876 6.71105H9.90443C9.93067 6.71105 9.94935 6.73222 9.94935 6.75835V10.104Z" fill="#09090B"></path>
    </g>
    <defs>
        <clipPath id="clip0_1460_1028">
            <rect width="27.1288" height="18.9802" fill="white" transform="translate(0.834229)"></rect>
        </clipPath>
    </defs>
</svg>