<svg width="79" height="19" viewBox="0 0 79 19" fill="none"
    xmlns="http://www.w3.org/2000/svg" class="mx-6 h-20 " style="color:#FCFCFC">
    <g clip-path="url(#clip0_2025_13161)">
        <path d="M51.1155 17.0816C50.6658 16.5289 50.421 15.8386 50.421 15.1265V9.98441C50.421 6.33509 48.7012 4.24561 45.6588 4.24561C41.608 4.24561 40.8237 6.45223 39.7457 8.32921C39.6933 8.42017 39.578 8.45209 39.4857 8.40284L39.2603 8.2822C39.1641 8.23076 39.129 8.10963 39.1836 8.01468L39.491 7.47701C39.6853 7.1434 39.7896 6.76453 39.7896 6.37812V5.60222C39.7896 5.10139 39.3837 4.69589 38.8832 4.69589H34.4722C33.8077 4.69589 33.4501 5.47579 33.8831 5.97929L34.5259 6.72681C35.1736 7.48056 35.5303 8.44148 35.5303 9.43521V14.773C35.5303 15.3652 35.4039 15.9504 35.159 16.4898L34.6479 17.6157C34.4146 18.1303 34.7908 18.7137 35.3555 18.7137H40.8658C41.522 18.7137 41.8826 17.9507 41.4665 17.4436L41.0207 16.9001C40.5655 16.3456 40.3166 15.6504 40.3166 14.9336V11.9883C40.3166 10.9599 40.5628 9.94003 41.0783 9.05011C41.7039 7.97034 42.521 7.41846 43.5436 7.41846C44.9197 7.41846 45.6597 8.39885 45.6597 10.1694V14.9535C45.6597 15.5315 45.539 16.103 45.3057 16.6317L44.8683 17.6228C44.6416 18.1366 45.0178 18.7137 45.579 18.7137H50.8099C51.464 18.7137 51.8251 17.9542 51.4129 17.4467L51.1165 17.0825L51.1155 17.0816Z" fill="currentColor"></path>
        <path d="M60.9394 16.6622C60.7632 16.6972 60.5904 16.7216 60.4386 16.7252C59.017 16.7252 58.3333 15.8304 58.3333 13.9897V6.67563H60.9219C61.2212 6.67563 61.4645 6.43293 61.4645 6.13305V5.24712C61.4645 4.94767 61.2212 4.70457 60.9219 4.70457H57.6091C57.5162 4.70457 57.4412 4.62915 57.4412 4.53643V4.28844C57.4412 4.19617 57.5157 4.12075 57.6081 4.12031H57.9444C58.1591 4.12075 58.3333 3.94685 58.3333 3.73213V1.79702C58.3333 1.42791 58.0345 1.12891 57.6651 1.12891H55.7603C55.4133 1.12891 55.1062 1.35383 55.003 1.68522C54.7835 2.411 54.254 4.70457 52.5322 4.70457H52.0207C51.7224 4.70457 51.4796 4.94723 51.4796 5.24712V6.13305C51.4796 6.43293 51.7224 6.67563 52.0207 6.67563H53.599V14.1747C53.599 17.2256 55.1515 18.9092 57.9654 18.9092C59.3694 18.9092 60.643 18.3963 61.4139 17.4718C61.7137 17.1107 61.4017 16.5717 60.9394 16.6622Z" fill="currentColor"></path>
        <path d="M33.2803 16.11C32.4414 16.2613 31.8744 15.6043 31.8744 14.5733V9.61038C31.8744 6.0711 29.631 4.16968 25.2737 4.16968C21.3715 4.16968 18.7062 5.67004 18.6991 7.93566C18.6973 8.34247 18.8499 8.74085 19.0748 9.12503C19.4364 9.68002 20.0899 10.0522 20.8382 10.0522C21.9775 10.0522 22.9011 9.19292 22.9011 8.13306C22.8976 7.04618 21.9797 6.49518 21.7015 6.39181C21.8994 6.22323 22.7539 5.56492 24.0155 5.56492C26.0212 5.56492 27.0952 7.08478 27.0952 9.45197V10.3929C25.59 10.3929 23.9011 10.5442 22.7135 10.8334C19.8072 11.4683 18.2758 13.1221 18.2758 15.1824C18.2758 17.5056 20.1249 18.9572 23.0555 18.9572C25.0896 18.9572 26.7798 18.2456 27.5717 17.0558C28.0721 18.0606 29.1816 18.6937 30.6088 18.6937C32.4542 18.6937 33.4209 17.731 33.7262 16.5865C33.8051 16.2608 33.5589 16.0563 33.2812 16.1104L33.2803 16.11ZM27.0948 14.9969C26.9377 16.1047 26.172 16.7657 25.0625 16.7657C23.8465 16.7657 23.0284 15.9476 23.0284 14.6531C23.0284 13.6501 23.477 12.7725 24.4556 12.3502C25.1148 12.0588 26.1441 11.9004 27.0948 11.8742V14.9969Z" fill="currentColor"></path>
        <path d="M77.4243 16.11C76.5852 16.2613 76.0183 15.6043 76.0183 14.5733V9.61038C76.0183 6.0711 73.7752 4.16968 69.4176 4.16968C65.5155 4.16968 62.85 5.67004 62.8432 7.93566C62.8413 8.34247 62.9941 8.74085 63.2189 9.12503C63.5805 9.68002 64.2341 10.0522 64.9821 10.0522C66.1214 10.0522 67.0451 9.19292 67.0451 8.13306C67.0417 7.04618 66.1239 6.49518 65.8455 6.39181C66.0436 6.22323 66.8981 5.56492 68.1596 5.56492C70.1651 5.56492 71.2392 7.08478 71.2392 9.45197V10.3929C69.7339 10.3929 68.0452 10.5442 66.8577 10.8334C63.9514 11.4683 62.4198 13.1221 62.4198 15.1824C62.4198 17.5056 64.2692 18.9572 67.1994 18.9572C69.2337 18.9572 70.9238 18.2456 71.7157 17.0558C72.2159 18.0606 73.3255 18.6937 74.7529 18.6937C76.5984 18.6937 77.5649 17.731 77.87 16.5865C77.9494 16.2608 77.7031 16.0563 77.4252 16.1104L77.4243 16.11ZM71.2387 14.9969C71.082 16.1047 70.316 16.7657 69.2064 16.7657C67.9907 16.7657 67.1726 15.9476 67.1726 14.6531C67.1726 13.6501 67.6208 12.7725 68.5995 12.3502C69.259 12.0588 70.2883 11.9004 71.2387 11.8742V14.9969Z" fill="currentColor"></path>
        <path d="M19.0253 0.0233933H16.6301C16.1146 0.0233933 15.8058 0.596119 16.0893 1.02688L16.4997 1.65019C16.8502 2.18298 16.9189 2.85331 16.6833 3.446L12.3864 14.2533C12.1885 14.7736 11.9884 15.1303 11.897 15.2182C11.8482 15.2647 11.767 15.2789 11.7036 15.2319L11.4769 15.0514C11.405 14.9973 11.409 14.9187 11.4751 14.8451C11.6011 14.6778 11.6792 14.476 11.7236 14.2923C11.7764 14.0718 11.7586 13.8403 11.6779 13.6282L8.03921 4.00941C7.79874 3.37458 7.80853 2.67231 8.06539 2.04413L8.45399 1.09432C8.6634 0.583252 8.28721 0.0229492 7.73489 0.0229492H1.87142C1.08131 0.0229492 0.669624 0.963003 1.20464 1.54371L1.57773 1.94875C2.26315 2.69227 2.80481 3.55646 3.17614 4.4974L8.40075 18.151C8.53741 18.4975 8.87189 18.7251 9.2441 18.7251H12.137C12.5088 18.7251 12.8428 18.4984 12.9795 18.1528L19.747 1.08722C19.9493 0.577042 19.5736 0.0238373 19.0248 0.0238373L19.0253 0.0233933Z" fill="currentColor"></path>
    </g>
    <defs>
        <clipPath id="clip0_2025_13161">
            <rect width="77.38" height="18.98" fill="currentColor" transform="translate(0.963074)"></rect>
        </clipPath>
    </defs>
</svg>