<svg xmlns="http://www.w3.org/2000/svg" class="h-3.5 w-3.5" viewBox="0 0 12 8">
    <g clip-path="url(#clip0_1785_19911)">
        <path d="M3.41047 2.62102C3.41047 2.76708 3.42625 2.8855 3.45389 2.97235C3.48547 3.05919 3.52494 3.15393 3.5802 3.25655C3.59994 3.28813 3.60783 3.31971 3.60783 3.34735C3.60783 3.38682 3.58415 3.42629 3.53283 3.46576L3.28415 3.63155C3.24862 3.65524 3.21309 3.66708 3.18152 3.66708C3.14205 3.66708 3.10257 3.64735 3.06309 3.61182C3.00783 3.55261 2.96047 3.48945 2.92099 3.42629C2.88152 3.35918 2.84205 3.28419 2.79862 3.1934C2.49073 3.55655 2.10389 3.73813 1.63809 3.73813C1.30652 3.73813 1.04205 3.6434 0.848621 3.45392C0.655203 3.26445 0.556519 3.01182 0.556519 2.69602C0.556519 2.3605 0.674941 2.08813 0.915728 1.88287C1.15652 1.6776 1.47625 1.57498 1.88283 1.57498C2.01705 1.57498 2.1552 1.58682 2.30125 1.60655C2.44731 1.62629 2.59731 1.65787 2.7552 1.6934V1.40524C2.7552 1.10524 2.69205 0.896025 2.56967 0.773658C2.44336 0.651291 2.2302 0.59208 1.92625 0.59208C1.78809 0.59208 1.64599 0.60787 1.49994 0.643396C1.35389 0.678925 1.21178 0.722345 1.07362 0.777605C1.01047 0.805238 0.963095 0.821025 0.935468 0.828925C0.907835 0.836818 0.888095 0.840765 0.872308 0.840765C0.817048 0.840765 0.789415 0.801292 0.789415 0.718398V0.524975C0.789415 0.461817 0.797308 0.414449 0.817048 0.386817C0.836781 0.359186 0.872308 0.331554 0.927568 0.303922C1.06573 0.23287 1.23152 0.173659 1.42494 0.126291C1.61836 0.0749749 1.82362 0.0512907 2.04073 0.0512907C2.51047 0.0512907 2.85389 0.15787 3.07494 0.371028C3.29205 0.584186 3.40257 0.907871 3.40257 1.34208V2.62102H3.41047ZM1.80783 3.22102C1.93809 3.22102 2.07231 3.19735 2.21441 3.14998C2.35652 3.1026 2.48283 3.01577 2.58941 2.89735C2.65257 2.82235 2.69994 2.73945 2.72362 2.64471C2.74731 2.54998 2.76309 2.4355 2.76309 2.30129V2.1355C2.64862 2.10787 2.52625 2.08418 2.39994 2.0684C2.27362 2.0526 2.15125 2.04471 2.02889 2.04471C1.76441 2.04471 1.57099 2.09602 1.44073 2.20261C1.31047 2.30919 1.24731 2.45919 1.24731 2.65655C1.24731 2.84208 1.29467 2.98024 1.39336 3.07498C1.48809 3.17366 1.62625 3.22102 1.80783 3.22102ZM4.97757 3.64735C4.90652 3.64735 4.85915 3.6355 4.82757 3.60787C4.79599 3.58419 4.76836 3.52892 4.74467 3.45392L3.81705 0.402607C3.79336 0.323659 3.78152 0.272344 3.78152 0.244712C3.78152 0.181554 3.81309 0.146028 3.87625 0.146028H4.26309C4.33809 0.146028 4.38941 0.15787 4.41705 0.185502C4.44862 0.209186 4.47231 0.264449 4.49599 0.339449L5.15915 2.95261L5.77494 0.339449C5.79467 0.260502 5.81836 0.209186 5.84994 0.185502C5.88151 0.161817 5.93678 0.146028 6.00784 0.146028H6.32362C6.39862 0.146028 6.44994 0.15787 6.48151 0.185502C6.51309 0.209186 6.54073 0.264449 6.55652 0.339449L7.18021 2.98418L7.86308 0.339449C7.88681 0.260502 7.91441 0.209186 7.94207 0.185502C7.97361 0.161817 8.02494 0.146028 8.09601 0.146028H8.46308C8.52628 0.146028 8.56181 0.177607 8.56181 0.244712C8.56181 0.264449 8.55781 0.284186 8.55387 0.30787C8.54994 0.331554 8.54208 0.363133 8.52628 0.406554L7.57494 3.45787C7.55127 3.53682 7.52361 3.58813 7.49207 3.61182C7.46047 3.6355 7.40914 3.65129 7.34207 3.65129H7.00254C6.92754 3.65129 6.87628 3.63945 6.84468 3.61182C6.81308 3.58419 6.78547 3.53287 6.76967 3.45392L6.15784 0.907872L5.54994 3.44998C5.5302 3.52892 5.50652 3.58024 5.47494 3.60787C5.44336 3.6355 5.38809 3.64735 5.31705 3.64735H4.97757ZM10.0499 3.75393C9.84468 3.75393 9.63941 3.73024 9.44207 3.68287C9.24467 3.6355 9.09074 3.58418 8.98808 3.52498C8.92494 3.48945 8.88154 3.44998 8.86574 3.41445C8.84994 3.37893 8.84208 3.33945 8.84208 3.30393V3.10261C8.84208 3.01971 8.87361 2.98024 8.93281 2.98024C8.95654 2.98024 8.98021 2.98418 9.00387 2.99208C9.02754 2.99998 9.06308 3.01577 9.10254 3.03155C9.23681 3.09076 9.38281 3.13813 9.53681 3.16971C9.69468 3.20129 9.84861 3.21708 10.0065 3.21708C10.2552 3.21708 10.4486 3.17366 10.5828 3.08682C10.7171 2.99997 10.7881 2.87366 10.7881 2.71182C10.7881 2.60129 10.7525 2.5105 10.6815 2.4355C10.6105 2.3605 10.4763 2.2934 10.2828 2.23024L9.71047 2.0526C9.42234 1.96182 9.20914 1.8276 9.07888 1.64998C8.94861 1.47629 8.88154 1.28287 8.88154 1.0776C8.88154 0.911818 8.91708 0.765765 8.98808 0.639449C9.05914 0.513133 9.15388 0.402607 9.27227 0.315764C9.39074 0.224975 9.52494 0.15787 9.68281 0.110502C9.84074 0.0631329 10.0065 0.043396 10.1802 0.043396C10.2671 0.043396 10.3578 0.0473434 10.4447 0.0591855C10.5355 0.0710275 10.6183 0.0868169 10.7013 0.102607C10.7802 0.122344 10.8552 0.14208 10.9263 0.165764C10.9973 0.189449 11.0525 0.213133 11.0921 0.236817C11.1473 0.268396 11.1868 0.299975 11.2105 0.335502C11.2341 0.36708 11.246 0.410502 11.246 0.465764V0.651291C11.246 0.734185 11.2144 0.777605 11.1552 0.777605C11.1236 0.777605 11.0723 0.761818 11.0052 0.730238C10.7802 0.627607 10.5275 0.576291 10.2473 0.576291C10.0223 0.576291 9.84468 0.611817 9.72234 0.686818C9.59994 0.761818 9.53681 0.876292 9.53681 1.03813C9.53681 1.14866 9.57628 1.2434 9.65521 1.3184C9.73414 1.3934 9.88021 1.4684 10.0894 1.5355L10.6499 1.71313C10.9341 1.80392 11.1394 1.93024 11.2618 2.09208C11.3841 2.25392 11.4433 2.43945 11.4433 2.64471C11.4433 2.81445 11.4078 2.9684 11.3407 3.10261C11.2697 3.23682 11.1749 3.35524 11.0525 3.44998C10.9302 3.54866 10.7841 3.61971 10.6144 3.67103C10.4368 3.72629 10.2513 3.75393 10.0499 3.75393Z" fill="white"></path>
        <path fill-rule="evenodd" clip-rule="evenodd" d="M10.7961 5.67236C9.4974 6.63157 7.6106 7.14079 5.9882 7.14079C3.71452 7.14079 1.66584 6.29999 0.118467 4.90262C-0.0039014 4.7921 0.106625 4.6421 0.252677 4.72894C1.92636 5.69999 3.99084 6.28815 6.12636 6.28815C7.56714 6.28815 9.15007 5.98815 10.6066 5.37236C10.8237 5.27368 11.0093 5.51447 10.7961 5.67236Z" fill="#FF9900"></path>
        <path fill-rule="evenodd" clip-rule="evenodd" d="M11.3367 5.0566C11.1709 4.84344 10.2394 4.95397 9.81699 5.00529C9.69066 5.02108 9.67092 4.91055 9.78539 4.82766C10.5275 4.3066 11.7473 4.4566 11.8894 4.63029C12.0315 4.80792 11.8499 6.02766 11.1551 6.61186C11.0486 6.70262 10.9459 6.65528 10.9933 6.53686C11.1512 6.14608 11.5025 5.26581 11.3367 5.0566Z" fill="#FF9900"></path>
    </g>
    <defs>
        <clipPath id="clip0_1785_19911">
            <rect width="12" height="7.2" fill="white"></rect>
        </clipPath>
    </defs>
</svg>