<svg xmlns="http://www.w3.org/2000/svg" class="h-3.5 w-3.5" viewBox="0 0 13 6">
    <path d="M11.6748 3.12863L10.2406 2.79568L9.98446 2.69324L3.40231 2.74446V5.92028L11.6748 5.9459V3.12863Z" fill="white"></path>
    <path d="M8.98555 5.63857C9.02676 5.52948 9.04129 5.41213 9.02792 5.29629C9.01456 5.18046 8.97369 5.0695 8.90872 4.97267C8.84199 4.89266 8.76014 4.8266 8.66785 4.77825C8.57556 4.72991 8.47465 4.70024 8.37088 4.69094L3.91448 4.63972C3.88887 4.63972 3.86326 4.61411 3.83765 4.61411C3.83168 4.60963 3.82684 4.60383 3.82351 4.59716C3.82017 4.5905 3.81844 4.58314 3.81844 4.57569C3.81844 4.56823 3.82017 4.56088 3.82351 4.55421C3.82684 4.54754 3.83168 4.54174 3.83765 4.53727C3.86326 4.48605 3.88887 4.46044 3.94009 4.46044L8.4221 4.40921C8.70664 4.37764 8.97764 4.27083 9.20721 4.09977C9.43678 3.92872 9.61664 3.6996 9.72829 3.43598L9.9844 2.77008C9.9844 2.74447 10.01 2.71886 9.9844 2.69324C9.84516 2.07304 9.50727 1.51525 9.02206 1.10462C8.53686 0.693985 7.93087 0.452969 7.29618 0.418192C6.6615 0.383415 6.0328 0.556776 5.50564 0.911934C4.97847 1.26709 4.58166 1.78463 4.37549 2.38591C4.10784 2.19475 3.78137 2.10407 3.45347 2.12979C3.15256 2.16334 2.872 2.29825 2.6579 2.51235C2.44381 2.72645 2.3089 3.007 2.27534 3.30792C2.25829 3.46195 2.26695 3.61774 2.30096 3.76893C1.81407 3.78239 1.35164 3.98528 1.01204 4.33444C0.672443 4.68361 0.482473 5.15149 0.482541 5.63857C0.478338 5.7332 0.486953 5.82797 0.508152 5.92029C0.509328 5.94029 0.517801 5.95915 0.531964 5.97332C0.546126 5.98748 0.564993 5.99595 0.584987 5.99713H8.80627C8.8575 5.99713 8.90872 5.97152 8.90872 5.92029L8.98555 5.63857Z" fill="#F48120"></path>
    <path d="M10.3941 2.77008H10.2661C10.2404 2.77008 10.2148 2.79569 10.1892 2.8213L10.0099 3.43598C9.96873 3.54506 9.9542 3.66241 9.96757 3.77825C9.98093 3.89409 10.0218 4.00505 10.0868 4.10188C10.1535 4.18189 10.2354 4.24795 10.3276 4.29629C10.4199 4.34463 10.5208 4.3743 10.6246 4.3836L11.5722 4.43483C11.5978 4.43483 11.6235 4.46044 11.6491 4.46044C11.655 4.46491 11.6599 4.47071 11.6632 4.47738C11.6665 4.48405 11.6683 4.4914 11.6683 4.49886C11.6683 4.50631 11.6665 4.51366 11.6632 4.52033C11.6599 4.527 11.655 4.5328 11.6491 4.53727C11.6235 4.5885 11.5978 4.61411 11.5466 4.61411L10.5734 4.66533C10.2888 4.69691 10.0179 4.80372 9.78828 4.97477C9.55871 5.14582 9.37885 5.37494 9.2672 5.63857L9.21598 5.86907C9.19037 5.89468 9.21598 5.94591 9.2672 5.94591H12.6479C12.6584 5.9474 12.669 5.94644 12.679 5.9431C12.689 5.93977 12.6981 5.93415 12.7055 5.9267C12.713 5.91924 12.7186 5.91015 12.722 5.90015C12.7253 5.89015 12.7262 5.87951 12.7248 5.86907C12.7857 5.65207 12.8201 5.42847 12.8272 5.20317C12.8231 4.55913 12.5655 3.94262 12.1101 3.4872C11.6547 3.03179 11.0382 2.77414 10.3941 2.77008Z" fill="#FAAD3F"></path>
</svg>