<svg xmlns="http://www.w3.org/2000/svg" viewBox="0 0 9 10">
    <path d="M4.43921 5.46462C4.45038 5.50338 4.45684 5.54467 4.45684 5.58778C4.45684 5.81405 4.28881 5.99721 4.08201 5.99721C3.8752 5.99721 3.70776 5.81405 3.70776 5.58778C3.70776 5.3615 3.8752 5.1777 4.08201 5.1777C4.12549 5.1777 4.16661 5.18649 4.20539 5.20146L4.97209 4.49011L5.12308 4.65076L4.43921 5.46462Z" fill="#FF282D"></path>
    <path fill-rule="evenodd" clip-rule="evenodd" d="M8.63641 7.82508V9.93604H6.54075L6.18296 9.3153C5.56964 9.70848 4.85051 9.9354 4.08205 9.9354C1.82954 9.9354 0.00357056 7.99199 0.00357056 5.59535C0.00357056 3.46815 1.44179 1.69975 3.33944 1.32782H3.32534V0.598957H3.08328V0.0626221H5.08139V0.598957H4.83876V1.32782H4.82758C5.3129 1.42346 5.76818 1.61036 6.17653 1.87103V1.25469H8.16112L8.16227 7.82508H8.63641ZM6.17711 5.78725V5.71787H5.93918V5.46473H6.17711V5.39219C6.08662 4.29141 5.24529 3.4194 4.20072 3.36001V3.60943H3.96278V3.36064C2.90351 3.42627 2.05515 4.32829 1.99229 5.45535H2.22729V5.70848H1.99111C2.04634 6.84369 2.89822 7.75382 3.96278 7.82009V7.57253H4.20072V7.82073C5.24529 7.76132 6.08719 6.88868 6.17711 5.78725Z" fill="#FF282D"></path>
</svg>