<svg xmlns="http://www.w3.org/2000/svg" class="h-3.5 w-3.5" viewBox="0 0 10 10">
    <path d="M9.13143 2.33572C9.07427 2.15394 8.93714 2.00624 8.76573 1.91535L5.28002 0.256575C5.18856 0.21113 5.08573 0.199768 4.99427 0.199768C4.90285 0.199768 4.80002 0.199768 4.70856 0.222491L1.22285 1.89263C1.05143 1.97216 0.925713 2.11986 0.879996 2.313L0.0114255 6.05093C-0.0228603 6.24408 0.022854 6.43719 0.13714 6.59627L2.54857 9.56162C2.68571 9.69795 2.88 9.78885 3.07428 9.8002H6.92573C7.13143 9.82292 7.32573 9.73202 7.45143 9.56162L9.86285 6.59627C9.97714 6.43719 10.0229 6.24408 10 6.05093L9.13143 2.33572Z" fill="#326DE6"></path>
    <path d="M8.58287 5.90331C8.57141 5.90331 8.57141 5.90331 8.58287 5.90331C8.57141 5.88056 8.53712 5.88056 8.5257 5.88056C8.47999 5.8692 8.43429 5.8692 8.38858 5.8692C8.3657 5.8692 8.34287 5.8692 8.31999 5.85784H8.30858C8.18287 5.84649 8.0457 5.82377 7.91999 5.7897C7.8857 5.7783 7.85141 5.74423 7.83999 5.71016C7.83999 5.6988 7.82858 5.6988 7.82858 5.6988L7.73712 5.67605C7.78287 5.34657 7.75999 5.00573 7.69141 4.67626C7.61141 4.34678 7.47429 4.02866 7.29141 3.74462L7.35999 3.67645V3.66509C7.35999 3.63101 7.37141 3.58556 7.39429 3.56283C7.49712 3.48331 7.59999 3.40378 7.71429 3.34697C7.73712 3.33561 7.75999 3.32424 7.78287 3.31288C7.82858 3.29016 7.86287 3.26744 7.90858 3.24472C7.91999 3.23335 7.93141 3.23336 7.94287 3.22199C7.95429 3.21063 7.95429 3.21063 7.95429 3.21063C8.05712 3.1311 8.07999 2.99476 7.99999 2.89251C7.9657 2.84706 7.89712 2.81298 7.83999 2.81298C7.78287 2.81298 7.7257 2.8357 7.67999 2.86978L7.66858 2.88115C7.65712 2.89251 7.6457 2.90387 7.63429 2.90387C7.59999 2.93796 7.5657 2.97204 7.54287 3.00612C7.53141 3.02885 7.50858 3.04021 7.49712 3.05157C7.4057 3.14246 7.31429 3.23336 7.21141 3.30152C7.18858 3.31288 7.1657 3.32424 7.14287 3.32424C7.13141 3.32424 7.10858 3.32424 7.09712 3.31288L7.0057 3.38105C6.91429 3.29016 6.81141 3.19927 6.71999 3.10838C6.29712 2.7789 5.77141 2.57439 5.23429 2.51758L5.22287 2.42669L5.21141 2.41533C5.17712 2.39261 5.1657 2.35852 5.15429 2.32443C5.15429 2.19946 5.15429 2.07448 5.17712 1.93815V1.92678C5.17712 1.90406 5.18858 1.88134 5.18858 1.85862C5.19999 1.81317 5.19999 1.76772 5.21141 1.72228V1.65411C5.22287 1.5405 5.13141 1.42688 5.01716 1.42688C4.94858 1.42688 4.87999 1.4496 4.83429 1.49505C4.78858 1.5405 4.7657 1.5973 4.7657 1.65411V1.71092C4.7657 1.75636 4.77712 1.80181 4.78858 1.84726C4.79999 1.86998 4.79999 1.8927 4.79999 1.91542V1.92678C4.82287 2.05176 4.82287 2.17674 4.82287 2.31307C4.81141 2.34716 4.79999 2.38124 4.7657 2.40397L4.75429 2.41533L4.74287 2.50622C4.61712 2.51758 4.49141 2.54031 4.35429 2.56303C3.81714 2.67664 3.32571 2.96068 2.94857 3.35833L2.88 3.31288H2.86857C2.85714 3.31288 2.84571 3.32424 2.82285 3.32424C2.8 3.32424 2.76571 3.31288 2.75428 3.30152C2.65143 3.22199 2.56 3.1311 2.46857 3.04021C2.45714 3.01748 2.43428 3.00612 2.42285 2.99476C2.38857 2.96068 2.36571 2.92659 2.33143 2.89251C2.32 2.88115 2.30857 2.88115 2.29714 2.86978C2.28571 2.85842 2.28571 2.85842 2.28571 2.85842C2.24 2.82434 2.18285 2.80162 2.12571 2.80162C2.05714 2.80162 2 2.82434 1.95428 2.88115C1.88571 2.9834 1.90857 3.11974 2 3.19927C2.01143 3.19927 2.01143 3.21063 2.01143 3.21063C2.01143 3.21063 2.03428 3.23336 2.04571 3.23336C2.08 3.25608 2.12571 3.2788 2.17143 3.30152C2.19428 3.31288 2.21714 3.32424 2.24 3.33561C2.35428 3.40377 2.45714 3.47194 2.56 3.55147C2.58285 3.5742 2.60571 3.61964 2.59428 3.65373V3.66509L2.66285 3.73326C2.65143 3.75598 2.64 3.76734 2.62857 3.79007C2.27428 4.34678 2.13714 5.00573 2.24 5.65334L2.14857 5.67605C2.14857 5.68745 2.13714 5.68745 2.13714 5.68745C2.12571 5.72152 2.09143 5.74423 2.05714 5.76695C1.93143 5.80106 1.80571 5.82377 1.66857 5.83513H1.65714C1.63428 5.83513 1.61143 5.83513 1.58857 5.84649C1.54285 5.84649 1.49714 5.85784 1.45143 5.85784C1.44 5.85784 1.42857 5.8692 1.40571 5.8692C1.39428 5.8692 1.39428 5.8692 1.38285 5.88056C1.25714 5.90331 1.17714 6.01693 1.2 6.14189C1.22285 6.24415 1.32571 6.31229 1.42857 6.30094C1.45143 6.30094 1.46285 6.30094 1.48571 6.28958C1.49714 6.28958 1.49714 6.28958 1.49714 6.27822C1.49714 6.26686 1.52 6.26686 1.54285 6.26686C1.58857 6.25551 1.63428 6.23279 1.66857 6.22144C1.69143 6.21004 1.71428 6.19868 1.73714 6.19868H1.74857C1.86285 6.15325 1.98857 6.11918 2.11428 6.09643H2.12571C2.16 6.09643 2.19428 6.10778 2.21714 6.13054C2.22857 6.13054 2.22857 6.14189 2.22857 6.14189L2.33143 6.13054C2.50285 6.65317 2.82285 7.11897 3.26857 7.45981C3.37143 7.53935 3.46285 7.60753 3.57714 7.66432L3.53143 7.75522C3.53143 7.76657 3.54285 7.76657 3.54285 7.76657C3.56571 7.80065 3.56571 7.84612 3.55428 7.88019C3.50857 7.9938 3.44 8.10741 3.37143 8.20967V8.22102C3.36 8.24378 3.34857 8.25514 3.32571 8.27785C3.30285 8.30056 3.28 8.34599 3.24571 8.39146C3.23428 8.40282 3.23428 8.41418 3.22285 8.42553C3.22285 8.42553 3.22285 8.43689 3.21143 8.43689C3.15428 8.5505 3.2 8.68687 3.30285 8.74365C3.32571 8.75501 3.36 8.76637 3.39428 8.76637C3.48571 8.76637 3.56571 8.70958 3.61143 8.63004C3.61143 8.63004 3.61143 8.61868 3.62285 8.61868C3.62285 8.60733 3.63428 8.59597 3.64571 8.58461C3.65714 8.53914 3.68 8.50507 3.69143 8.45964L3.71428 8.39146C3.74857 8.26649 3.80571 8.15288 3.86285 8.03927C3.88571 8.00516 3.92 7.98244 3.95428 7.97108C3.96571 7.97108 3.96571 7.97108 3.96571 7.95973L4.01142 7.86883C4.33141 7.9938 4.66287 8.05063 5.0057 8.05063C5.21141 8.05063 5.41716 8.02787 5.62287 7.98244C5.74858 7.95973 5.87429 7.91426 5.98858 7.88019L6.03429 7.95973C6.0457 7.95973 6.0457 7.95973 6.0457 7.97108C6.07999 7.98244 6.11429 8.00516 6.13712 8.03927C6.19429 8.15288 6.23999 8.26649 6.2857 8.3801V8.39146L6.30858 8.45964C6.31999 8.50507 6.33141 8.5505 6.35429 8.58461C6.3657 8.59597 6.3657 8.60733 6.37712 8.61868C6.37712 8.61868 6.37716 8.63004 6.38858 8.63004C6.43429 8.70958 6.51429 8.76637 6.6057 8.76637C6.63999 8.76637 6.66287 8.75501 6.69712 8.74365C6.74287 8.72094 6.78858 8.67551 6.79999 8.61868C6.81141 8.56186 6.81141 8.49372 6.78858 8.43689C6.78858 8.42553 6.77712 8.42553 6.77712 8.42553C6.77712 8.41418 6.7657 8.40282 6.75429 8.39146C6.73141 8.34599 6.70858 8.31192 6.67429 8.27785C6.66287 8.25514 6.65141 8.24378 6.62858 8.22102V8.20967C6.54858 8.10741 6.49141 7.9938 6.4457 7.88019C6.43429 7.84612 6.43429 7.80065 6.45712 7.76657C6.45712 7.75522 6.46858 7.75522 6.46858 7.75522L6.43429 7.66432C7.02858 7.31213 7.46287 6.76678 7.67999 6.11918L7.77141 6.13054C7.78287 6.13054 7.78287 6.11918 7.78287 6.11918C7.8057 6.09643 7.83999 6.08507 7.87429 6.08507H7.8857C8.01141 6.10778 8.13712 6.14189 8.25141 6.18732H8.26287C8.2857 6.19868 8.30858 6.21004 8.33141 6.21004C8.37716 6.23279 8.41141 6.24415 8.45712 6.25551C8.46858 6.25551 8.47999 6.26686 8.50287 6.26686C8.51429 6.26686 8.51429 6.26686 8.5257 6.27822C8.54858 6.28958 8.55999 6.28958 8.58287 6.28958C8.6857 6.28958 8.77712 6.22144 8.81141 6.13054C8.77712 6.01693 8.69712 5.92603 8.58287 5.90331ZM5.29141 5.55108L4.98287 5.6988L4.67429 5.55108L4.58287 5.2216L4.79999 4.94895H5.15429L5.37141 5.2216L5.29141 5.55108ZM7.15429 4.81258C7.21141 5.0512 7.22287 5.28978 7.19999 5.52837L6.11429 5.2216C6.01141 5.19889 5.95429 5.09663 5.97712 4.99438C5.98858 4.96031 5.99999 4.93759 6.02287 4.91484L6.87999 4.14227C7.0057 4.34678 7.09712 4.574 7.15429 4.81258ZM6.53712 3.72189L5.61141 4.38085C5.53141 4.42632 5.41716 4.41496 5.35999 4.33542C5.33712 4.31271 5.3257 4.28995 5.3257 4.25588L5.25712 3.10838C5.73712 3.16518 6.19429 3.38105 6.53712 3.72189ZM4.46858 3.14246L4.69712 3.09702L4.62858 4.23316C4.62858 4.33542 4.53712 4.41496 4.43429 4.41496C4.39999 4.41496 4.37712 4.4036 4.34287 4.39221L3.41714 3.72189C3.70285 3.43786 4.06857 3.23336 4.46858 3.14246ZM3.07428 4.14227L3.92 4.89212C4 4.96031 4.01143 5.07392 3.94285 5.15346C3.92 5.18753 3.89714 5.19889 3.85143 5.21024L2.75428 5.52837C2.70857 5.0512 2.82285 4.56264 3.07428 4.14227ZM2.88 6.06235L4.01142 5.8692C4.10285 5.8692 4.19429 5.92603 4.2057 6.01693C4.21712 6.051 4.21712 6.09643 4.19429 6.13054L3.76 7.1758C3.36 6.91446 3.04 6.5168 2.88 6.06235ZM5.47429 7.47117C5.31429 7.50528 5.14287 7.52799 4.97141 7.52799C4.73141 7.52799 4.47999 7.48252 4.25141 7.41438L4.81141 6.40319C4.86858 6.33505 4.95999 6.31229 5.03999 6.35776C5.07429 6.38048 5.09712 6.40319 5.13141 6.4373L5.67999 7.42574C5.62287 7.4371 5.55429 7.44845 5.47429 7.47117ZM6.86858 6.48273C6.69712 6.75542 6.45712 6.99401 6.18287 7.1644L5.73712 6.10778C5.71429 6.01693 5.74858 5.92603 5.83999 5.88056C5.87429 5.8692 5.90858 5.85784 5.94287 5.85784L7.0857 6.051C7.02858 6.21004 6.95999 6.35776 6.86858 6.48273Z" fill="white"></path>
</svg>