<svg xmlns="http://www.w3.org/2000/svg" class="h-3.5 w-3.5" viewBox="0 0 12 6">
    <path d="M0.949552 1.16469H2.72917C3.25153 1.16873 3.63003 1.30698 3.86464 1.57943C4.09927 1.85187 4.17674 2.22395 4.09707 2.69564C4.06609 2.91116 3.99749 3.1226 3.89121 3.32997C3.7894 3.53737 3.64774 3.72441 3.46626 3.89115C3.24489 4.10259 3.00806 4.23678 2.75571 4.29369C2.5034 4.35064 2.24222 4.3791 1.97217 4.3791H1.17535L0.923006 5.53799H0L0.949552 1.16469ZM1.72649 1.85998L1.32808 3.68985C1.35463 3.69392 1.38118 3.69595 1.40775 3.69595H1.50073C1.92568 3.70002 2.27984 3.66139 2.56319 3.58005C2.84645 3.49468 3.03681 3.19784 3.13424 2.68954C3.21388 2.26257 3.13421 2.01655 2.89514 1.95151C2.66054 1.88643 2.36614 1.85597 2.01202 1.86C1.96122 1.86398 1.91027 1.86602 1.85928 1.8661H1.71986L1.72649 1.85998ZM5.14874 0H6.0651L5.80612 1.16502H6.62952C7.08108 1.17313 7.4175 1.25853 7.63886 1.42121C7.86463 1.58383 7.93106 1.89289 7.83805 2.34831L7.39316 4.37943H6.46351L6.8885 2.43981C6.93275 2.23648 6.91948 2.09213 6.84868 2.00673C6.77782 1.92135 6.62509 1.87866 6.39048 1.87866L5.65339 1.87253L5.10892 4.37943H4.19255L5.14874 0ZM8.82221 1.16466H10.6018C11.1242 1.16873 11.5027 1.30701 11.7373 1.57943C11.9719 1.85187 12.0494 2.22395 11.9697 2.69564C11.9387 2.91116 11.8701 3.1226 11.7639 3.32997C11.662 3.53737 11.5204 3.72441 11.3389 3.89115C11.1175 4.10259 10.8807 4.23678 10.6283 4.29369C10.3761 4.35064 10.1148 4.3791 9.84482 4.3791H9.04797L8.79566 5.53797H7.87262L8.82221 1.16466ZM9.59912 1.85998L9.20068 3.68985C9.22703 3.6939 9.25369 3.69594 9.28041 3.69595H9.37332C9.79837 3.70002 10.1525 3.66139 10.4358 3.58005C10.7191 3.49468 10.9095 3.19784 11.0069 2.68954C11.0865 2.26257 11.0069 2.01655 10.7678 1.95151C10.5332 1.88643 10.2388 1.85597 9.88464 1.86C9.83386 1.86398 9.78293 1.86601 9.73197 1.8661H9.59248L9.59912 1.85998Z" fill="white"></path>
</svg>