<svg xmlns="http://www.w3.org/2000/svg" width="24" height="24" class="h-6 w-6 text-transparent" fill="none" stroke-width="2" viewBox="0 0 24 24">
    <g clip-path="url(#clip0_1807_20105)">
        <path d="M5.14016 15.1181C5.14016 16.4977 4.0252 17.6126 2.64567 17.6126C1.26614 17.6126 0.151184 16.4977 0.151184 15.1181C0.151184 13.7386 1.26614 12.6237 2.64567 12.6237H5.14016V15.1181ZM6.38741 15.1181C6.38741 13.7386 7.50237 12.6237 8.88189 12.6237C10.2614 12.6237 11.3764 13.7386 11.3764 15.1181V21.3544C11.3764 22.7339 10.2614 23.8489 8.88189 23.8489C7.50237 23.8489 6.38741 22.7339 6.38741 21.3544V15.1181Z" fill="#E01E5A"></path>
        <path d="M8.8819 5.10238C7.50237 5.10238 6.38741 3.98742 6.38741 2.60789C6.38741 1.22836 7.50237 0.113403 8.8819 0.113403C10.2614 0.113403 11.3764 1.22836 11.3764 2.60789V5.10238H8.8819ZM8.8819 6.36852C10.2614 6.36852 11.3764 7.48348 11.3764 8.86301C11.3764 10.2425 10.2614 11.3575 8.8819 11.3575H2.62678C1.24725 11.3575 0.132294 10.2425 0.132294 8.86301C0.132294 7.48348 1.24725 6.36852 2.62678 6.36852H8.8819Z" fill="#36C5F0"></path>
        <path d="M18.8787 8.86301C18.8787 7.48348 19.9937 6.36852 21.3732 6.36852C22.7528 6.36852 23.8677 7.48348 23.8677 8.86301C23.8677 10.2425 22.7528 11.3575 21.3732 11.3575H18.8787V8.86301ZM17.6315 8.86301C17.6315 10.2425 16.5165 11.3575 15.137 11.3575C13.7575 11.3575 12.6425 10.2425 12.6425 8.86301V2.60789C12.6425 1.22836 13.7575 0.113403 15.137 0.113403C16.5165 0.113403 17.6315 1.22836 17.6315 2.60789V8.86301V8.86301Z" fill="#2EB67D"></path>
        <path d="M15.137 18.8599C16.5165 18.8599 17.6315 19.9748 17.6315 21.3544C17.6315 22.7339 16.5165 23.8489 15.137 23.8489C13.7575 23.8489 12.6425 22.7339 12.6425 21.3544V18.8599H15.137ZM15.137 17.6126C13.7575 17.6126 12.6425 16.4977 12.6425 15.1181C12.6425 13.7386 13.7575 12.6237 15.137 12.6237H21.3921C22.7716 12.6237 23.8866 13.7386 23.8866 15.1181C23.8866 16.4977 22.7716 17.6126 21.3921 17.6126H15.137Z" fill="#ECB22E"></path>
    </g>
    <defs>
        <clipPath id="clip0_1807_20105">
            <rect width="24" height="24" fill="white"></rect>
        </clipPath>
    </defs>
</svg>